<svg xmlns="http://www.w3.org/2000/svg" version="1.0" width="1080.000000pt" height="1080.000000pt" viewBox="0 0 1080.000000 1080.000000" preserveAspectRatio="xMidYMid meet">
<metadata fill="#03a9f4">
Created by potrace 1.16, written by Peter Selinger 2001-2019
</metadata>
<g transform="translate(0.000000,1080.000000) scale(0.100000,-0.100000)" fill="#03a9f4" stroke="none">
<path d="M5450 10491 c-137 -5 -159 -9 -191 -28 -20 -13 -39 -20 -42 -17 -3 4 -22 -3 -42 -15 -43 -25 -57 -27 -49 -6 5 11 2 13 -10 9 -9 -3 -16 -11 -16 -16 0 -13 -31 -37 -48 -38 -7 0 -10 5 -6 12 4 7 3 8 -4 4 -21 -13 -12 -26 17 -26 17 0 32 -4 35 -9 6 -10 -16 -21 -42 -21 -15 0 -15 2 -2 10 28 18 1 10 -42 -13 -53 -28 -104 -30 -100 -4 3 18 -13 24 -22 8 -3 -5 -26 -12 -51 -16 -66 -9 -182 -62 -347 -158 -54 -31 -160 -89 -235 -127 -154 -79 -185 -103 -238 -186 -20 -31 -43 -63 -50 -71 -8 -7 -17 -22 -20 -33 -3 -11 -10 -20 -14 -20 -9 0 -21 -202 -14 -228 6 -19 104 -101 143 -118 14 -7 39 -17 55 -23 17 -7 38 -18 48 -25 17 -13 17 -16 -3 -65 -11 -29 -20 -58 -20 -66 0 -24 19 -17 26 9 3 14 15 33 26 43 20 18 20 17 17 -7 -3 -19 0 -25 14 -24 9 1 16 -3 15 -10 -3 -14 53 -76 68 -76 7 0 15 6 17 13 3 6 6 8 6 2 1 -10 76 -11 187 -5 27 2 55 1 61 -3 7 -5 14 4 18 23 5 21 13 30 26 30 10 0 19 -4 19 -10 0 -18 22 -10 27 10 6 23 8 24 34 10 15 -8 19 -7 19 4 0 22 19 30 36 15 10 -8 18 -9 25 -2 5 5 31 7 59 3 27 -4 53 -3 58 2 5 5 20 -2 35 -16 14 -13 28 -21 31 -18 3 3 6 -2 6 -12 0 -9 16 -31 34 -49 19 -18 56 -73 81 -124 32 -65 54 -96 73 -105 19 -9 36 -34 58 -86 17 -40 40 -79 50 -87 18 -13 18 -14 2 -20 -22 -9 -23 -48 -2 -66 11 -9 14 -22 10 -41 -3 -15 -1 -28 4 -28 6 0 10 -4 10 -10 0 -5 -7 -10 -15 -10 -17 0 -20 -16 -5 -25 7 -4 7 -12 0 -25 -13 -24 -14 -61 -1 -41 6 9 10 3 14 -20 3 -19 1 -38 -4 -43 -6 -6 -9 -5 -9 2 0 17 -37 -7 -43 -28 -5 -19 -46 -24 -66 -7 -10 9 -15 9 -18 1 -11 -32 -30 -47 -48 -37 -12 7 -14 13 -6 17 6 4 11 11 11 17 0 12 -37 12 -45 -1 -4 -6 -9 -8 -13 -6 -4 2 -15 -7 -24 -19 -17 -22 -17 -25 -2 -40 9 -9 14 -19 10 -22 -3 -3 -17 7 -31 23 l-26 29 7 -29 c6 -25 4 -28 -10 -23 -13 5 -16 3 -12 -11 9 -26 -37 -63 -72 -60 -24 3 -27 0 -28 -29 0 -18 -3 -35 -6 -39 -11 -10 -57 27 -51 42 4 10 -3 14 -26 14 -18 0 -38 8 -49 21 -17 17 -20 18 -25 5 -8 -20 -27 -21 -27 -1 0 19 -5 19 -66 0 -27 -8 -50 -15 -51 -15 -2 0 -10 0 -18 0 -28 0 -34 -41 -11 -74 49 -72 71 -96 85 -97 12 0 12 -2 3 -6 -10 -4 -8 -9 7 -20 30 -20 27 -64 -5 -88 -14 -11 -30 -30 -35 -44 -9 -23 -10 -23 -24 -5 -14 18 -15 17 -9 -10 6 -25 4 -28 -10 -23 -11 5 -16 1 -16 -12 0 -23 -29 -32 -78 -24 -43 7 -57 20 -78 69 -8 20 -24 38 -35 41 -10 3 -19 9 -19 14 0 5 -14 24 -31 41 -25 26 -32 30 -39 18 -8 -12 -10 -10 -10 7 0 17 -4 21 -17 16 -11 -4 -13 -8 -5 -11 7 -2 10 -8 7 -12 -3 -5 -12 -7 -20 -4 -8 4 -12 11 -9 16 4 6 -2 7 -16 3 -14 -5 -20 -3 -16 3 3 6 -7 13 -24 17 -38 8 -46 22 -27 43 9 11 13 29 10 50 -4 24 -2 32 10 32 20 0 69 40 64 53 -2 7 -21 12 -43 13 -51 2 -63 5 -107 32 -21 12 -42 22 -46 22 -5 0 -25 11 -46 26 -37 25 -75 29 -82 9 -3 -11 73 -95 115 -127 18 -15 22 -28 22 -75 0 -42 7 -69 23 -99 15 -25 21 -47 17 -60 -12 -31 0 -44 40 -44 62 0 99 -11 105 -31 4 -10 16 -21 28 -24 16 -4 22 -14 23 -35 1 -30 -10 -41 -19 -17 -3 9 -8 7 -18 -5 -11 -14 -21 -16 -50 -9 -20 5 -60 6 -88 3 -43 -4 -51 -7 -45 -21 3 -9 10 -36 15 -60 5 -24 11 -47 15 -50 3 -3 37 -8 77 -12 57 -5 74 -4 80 7 7 12 16 10 50 -11 33 -19 41 -30 39 -47 -6 -40 -18 -45 -91 -41 -39 1 -73 -2 -76 -7 -10 -16 -25 -12 -19 5 4 8 1 15 -5 15 -6 0 -11 -6 -11 -12 0 -8 -5 -6 -11 4 -5 10 -16 15 -25 11 -31 -12 14 -146 59 -176 14 -9 58 -24 99 -33 80 -18 159 -16 373 11 172 21 240 20 265 -5 11 -11 20 -28 20 -39 0 -10 -40 -59 -90 -109 -49 -50 -90 -94 -90 -98 0 -3 6 -1 14 5 10 8 16 9 21 1 3 -5 1 -10 -6 -10 -6 0 -9 -8 -6 -20 3 -11 1 -18 -3 -15 -5 3 -16 -3 -26 -12 -16 -16 -16 -16 -10 7 12 41 -88 -70 -156 -174 -33 -50 -69 -103 -79 -118 -10 -15 -19 -32 -19 -37 0 -15 -48 -21 -162 -19 -80 2 -105 5 -97 14 6 8 -6 16 -43 27 -75 22 -158 31 -158 16 0 -7 -10 -9 -27 -6 -19 3 -50 -7 -104 -34 -43 -21 -81 -44 -85 -50 -5 -9 -2 -10 9 -6 11 4 17 1 17 -8 0 -8 -4 -15 -10 -15 -5 0 -10 -4 -10 -10 0 -5 7 -10 15 -10 8 0 15 3 15 8 0 4 15 8 33 8 17 1 70 8 117 17 107 19 196 12 258 -22 32 -17 27 -24 -14 -18 -36 6 -36 6 -19 -13 17 -19 17 -20 -3 -20 -16 0 -20 -4 -15 -16 5 -14 2 -16 -23 -10 -23 6 -27 5 -16 -5 21 -22 14 -27 -40 -25 l-51 1 -12 -55 c-7 -30 -18 -107 -25 -170 -12 -105 -37 -240 -60 -315 l-9 -30 1 35 c0 19 -1 40 -2 45 -2 16 -40 -167 -40 -197 0 -16 -5 -28 -11 -28 -8 0 -10 18 -6 58 4 35 3 49 -2 36 -5 -11 -12 -56 -15 -100 -6 -75 -5 -77 8 -44 l14 35 1 -66 c1 -70 5 -77 56 -86 73 -13 137 -27 179 -39 70 -20 116 -19 116 4 1 9 7 89 14 177 8 88 12 161 11 163 -2 2 -38 7 -81 11 -44 5 -92 14 -108 20 -33 13 -89 51 -83 57 2 2 26 -3 53 -11 71 -22 75 -18 13 12 -64 31 -64 31 -56 39 3 4 20 2 36 -4 43 -15 48 3 6 22 -19 9 -35 21 -35 26 0 5 19 0 43 -10 23 -11 53 -19 67 -19 l25 0 -23 10 c-33 13 -78 49 -61 49 8 0 30 -4 49 -10 19 -5 68 -11 108 -13 71 -5 72 -4 72 20 0 23 35 232 46 278 5 19 -3 22 -67 36 -68 13 -107 39 -60 39 14 0 19 5 15 15 -4 11 1 15 17 15 17 0 20 3 10 9 -20 13 3 23 34 15 20 -5 24 -3 19 10 -5 13 2 16 44 16 l50 0 18 48 c19 52 32 72 45 72 5 0 9 -8 9 -17 0 -15 2 -14 15 4 8 11 25 21 39 21 22 0 23 -3 14 -29 -5 -15 -8 -36 -5 -46 3 -14 6 -12 16 11 18 45 21 27 7 -42 -12 -57 -7 -86 8 -44 14 38 32 57 51 54 19 -3 19 -2 3 11 -20 15 -24 37 -8 37 6 0 10 -4 10 -9 0 -5 11 -11 25 -13 20 -4 25 -1 25 16 0 11 8 30 17 41 15 19 15 19 9 -7 -3 -14 -9 -34 -13 -43 -4 -12 -2 -16 7 -13 8 2 19 22 27 44 l12 39 -5 -38 c-3 -21 -8 -46 -11 -55 -4 -12 -3 -14 5 -7 5 6 12 19 14 29 1 11 9 21 17 24 11 4 12 0 6 -14 -22 -53 -19 -62 21 -70 39 -6 86 -23 137 -50 16 -8 38 -14 49 -14 17 0 20 5 15 28 -42 192 -53 272 -40 272 11 0 33 -44 33 -64 0 -15 47 -162 100 -310 17 -49 35 -125 41 -170 5 -44 12 -102 15 -128 3 -28 1 -48 -4 -48 -5 0 -13 -15 -16 -34 -6 -33 -41 -75 -52 -63 -4 3 -10 39 -14 79 -8 74 -21 121 -38 132 -5 3 -9 51 -10 108 -2 94 -4 105 -24 122 -20 16 -33 17 -97 12 -57 -6 -72 -4 -69 6 3 7 15 15 29 19 14 4 17 7 7 8 -9 1 -24 4 -33 7 -10 4 -15 2 -13 -7 4 -17 -50 -25 -65 -10 -6 6 -15 11 -21 11 -5 0 0 -9 12 -21 14 -12 30 -18 41 -14 24 7 38 -13 15 -22 -15 -6 -70 5 -114 21 -10 4 -23 -6 -38 -28 -16 -23 -33 -35 -55 -39 -47 -7 -58 1 -50 32 6 23 4 24 -10 13 -8 -7 -16 -21 -15 -30 0 -9 -7 -68 -16 -131 -9 -63 -16 -128 -16 -144 l0 -30 94 6 c51 3 98 2 102 -3 10 -9 114 -18 115 -10 0 3 2 37 5 75 7 88 24 111 24 32 0 -31 5 -57 10 -57 6 0 10 14 10 32 0 48 18 22 29 -42 l9 -55 1 55 c1 49 3 53 15 37 9 -11 12 -33 10 -57 -3 -21 0 -41 6 -45 6 -4 10 9 10 34 0 23 5 41 10 41 6 0 10 -18 10 -40 0 -34 4 -42 25 -50 31 -12 33 -31 4 -27 -12 1 -24 -4 -26 -10 -3 -8 3 -13 14 -13 20 0 43 -18 43 -33 0 -4 -4 -5 -10 -2 -5 3 -10 2 -10 -3 0 -6 7 -12 15 -16 21 -8 19 -36 -2 -36 -17 -1 -17 -1 0 -11 9 -5 17 -17 17 -26 0 -12 -7 -14 -30 -9 l-30 6 2 -201 3 -201 35 -13 c19 -7 86 -34 148 -60 62 -26 116 -45 119 -41 4 3 7 62 7 131 0 69 3 125 7 125 14 0 28 -95 28 -184 0 -49 2 -91 5 -94 5 -5 11 177 8 221 -2 25 16 21 20 -5 2 -13 8 -23 15 -23 6 0 15 -3 19 -7 4 -4 18 -5 31 -2 33 9 70 -13 78 -45 l7 -26 10 28 c9 25 4 41 -32 113 -23 46 -45 84 -48 84 -3 0 -16 -10 -29 -22 -19 -17 -26 -19 -36 -9 -9 10 -6 18 20 41 17 15 29 31 26 34 -3 2 -16 -6 -30 -20 -13 -13 -27 -24 -31 -24 -11 1 -62 48 -62 57 0 5 -9 14 -21 21 -20 13 -19 14 25 53 44 39 60 79 37 93 -5 3 -19 25 -31 48 -27 52 -62 97 -76 97 -21 2 -49 46 -49 79 0 38 8 40 29 10 25 -36 25 -16 0 37 -13 28 -23 54 -24 59 0 11 49 50 74 57 12 3 19 12 17 20 -1 8 -9 36 -16 63 -21 81 2 100 57 46 16 -16 32 -30 35 -30 3 0 21 -13 40 -30 18 -17 38 -30 44 -30 17 0 41 -29 34 -41 -4 -6 2 -13 13 -15 22 -6 39 -68 47 -174 3 -45 10 -69 22 -78 9 -6 20 -9 24 -5 14 14 22 86 24 224 1 75 6 142 10 149 6 9 4 11 -5 5 -10 -6 -11 -3 -6 16 4 13 8 31 9 39 1 8 7 18 12 22 6 5 6 8 -1 8 -7 0 -14 6 -17 14 -4 10 0 12 14 9 10 -3 19 -1 19 5 0 5 -9 12 -20 15 -14 3 -20 14 -21 34 -1 16 -3 21 -6 11 -6 -23 -23 -23 -23 -2 0 9 -7 22 -15 28 -10 8 -12 15 -5 26 6 10 10 11 10 3 0 -7 7 -13 16 -13 11 0 15 6 11 19 -4 16 1 21 21 23 14 2 27 8 29 15 3 8 -7 11 -34 7 -35 -4 -36 -4 -13 7 25 12 25 13 3 16 -20 4 -21 5 -6 23 9 10 21 16 26 13 17 -10 37 27 26 48 -14 26 -28 24 -21 -3 5 -22 4 -22 -15 -5 -11 10 -38 18 -64 18 -24 1 -34 4 -21 6 12 2 20 9 16 14 -3 5 13 18 36 28 23 10 41 22 41 27 1 5 2 11 5 13 5 6 -4 -37 -11 -48 -5 -10 44 1 64 13 5 3 19 -2 31 -12 20 -16 21 -21 11 -41 -7 -12 -10 -35 -6 -52 5 -23 4 -28 -8 -23 -9 3 -13 13 -9 26 4 16 1 19 -14 16 -14 -2 -20 -13 -21 -41 -2 -36 9 -48 23 -26 10 17 24 -10 24 -49 0 -23 -4 -31 -12 -26 -7 4 -8 3 -4 -4 12 -19 -24 -62 -53 -63 l-26 -1 25 -7 c18 -6 24 -13 22 -30 -1 -16 4 -24 19 -28 16 -4 17 -8 7 -14 -9 -6 -6 -9 10 -9 20 0 22 -4 16 -22 -4 -13 -10 -25 -15 -28 -4 -3 -4 -25 2 -48 5 -24 7 -47 4 -52 -3 -5 -1 -18 4 -29 8 -14 7 -22 -4 -31 -17 -14 -21 -45 -5 -35 6 3 10 -3 10 -14 0 -28 -11 -52 -21 -45 -5 3 -6 -1 -3 -9 3 -8 1 -18 -5 -22 -6 -3 -11 -18 -10 -33 0 -15 3 -21 6 -14 2 6 11 12 18 12 7 0 18 12 24 28 6 15 25 54 44 88 18 33 32 65 30 71 -2 5 3 16 12 23 8 7 15 20 15 29 0 9 11 29 24 44 21 24 23 33 14 52 -13 29 10 71 44 84 21 8 21 8 -2 14 l-24 6 28 26 c15 14 31 25 37 25 5 0 9 4 9 10 0 5 -7 7 -14 4 -13 -5 -13 -2 -3 20 11 24 34 38 67 41 25 2 61 25 55 36 -4 5 -1 9 5 9 6 0 9 4 6 9 -3 5 1 12 10 15 22 8 26 8 19 -4 -3 -5 -1 -10 4 -10 6 0 11 5 11 11 0 5 4 8 9 4 5 -3 12 -1 16 5 9 15 25 12 25 -4 0 -8 -9 -18 -20 -21 -11 -3 -20 -13 -20 -21 0 -17 12 -18 28 -2 9 9 12 8 12 -5 0 -9 -6 -17 -14 -17 -7 0 -16 -9 -19 -20 -4 -17 -2 -18 14 -9 13 6 19 6 19 -1 0 -5 -4 -10 -10 -10 -5 0 -10 -7 -10 -16 0 -10 6 -14 14 -11 9 4 16 -3 18 -18 4 -19 -1 -26 -24 -36 -18 -7 -27 -17 -24 -25 3 -8 1 -14 -4 -14 -6 0 -10 -5 -10 -11 0 -7 11 -9 30 -5 28 5 30 4 20 -14 -6 -11 -7 -20 -3 -20 4 0 1 -6 -8 -13 -20 -15 -40 -80 -29 -96 10 -17 61 67 97 159 64 165 72 192 94 345 17 114 28 155 42 152 7 -1 11 6 9 16 -3 15 1 18 20 12 20 -5 20 -4 -4 12 -33 21 -36 33 -9 33 11 0 28 -11 39 -25 11 -13 23 -21 27 -17 5 4 5 1 1 -6 -5 -8 6 -28 28 -52 20 -22 36 -46 37 -53 2 -22 17 37 18 69 1 33 -33 91 -111 188 -22 28 -49 70 -58 92 -23 53 -34 59 -50 29 -12 -23 -30 -25 -30 -4 0 6 5 7 10 4 13 -8 13 8 1 21 -14 14 -16 68 -8 189 12 175 49 290 118 374 16 20 29 40 29 46 0 6 11 31 24 55 13 25 42 100 64 165 22 66 53 143 69 170 36 62 113 222 113 235 0 6 4 18 9 28 55 100 161 360 176 427 20 97 35 144 46 151 7 4 10 41 7 100 -2 65 1 97 10 105 24 25 11 206 -19 261 -5 10 -9 22 -9 28 0 15 -69 114 -87 124 -12 7 -13 10 -2 16 9 6 10 12 2 22 -6 7 -18 48 -27 90 -16 71 -42 122 -73 141 -7 4 -13 14 -13 21 0 17 -102 104 -163 140 -26 15 -63 28 -82 29 -18 1 -31 5 -29 9 2 4 -6 9 -18 13 -80 21 -108 33 -152 62 -26 18 -56 33 -66 33 -10 0 -23 6 -29 14 -6 7 -33 21 -59 31 -26 10 -63 27 -82 38 -41 24 -98 36 -197 44 -45 3 -73 1 -73 -5 0 -12 -48 -22 -68 -14 -11 4 -8 8 9 18 13 7 20 13 14 12 -5 -1 -80 -4 -165 -7z m521 -1870 c64 -40 102 -134 68 -168 -5 -5 -12 -35 -15 -64 -8 -83 -48 -209 -68 -209 -4 0 -6 6 -3 14 3 8 8 32 11 53 5 34 5 35 -4 9 -12 -37 -48 -76 -71 -76 -10 0 -35 -16 -56 -36 l-38 -37 38 7 c23 4 37 3 37 -4 0 -17 18 -11 40 12 27 29 26 9 -3 -33 -47 -69 -192 -169 -247 -169 -28 0 -103 49 -123 81 -18 29 -1 49 43 49 46 0 48 3 20 33 -22 23 -22 54 -1 49 34 -7 83 -4 93 6 9 9 3 12 -27 12 -22 0 -47 5 -55 10 -12 9 -9 15 20 40 19 16 40 30 45 30 32 0 85 -24 99 -45 21 -31 44 -32 51 -2 8 31 -9 73 -39 92 -13 9 -27 23 -30 31 -9 25 33 16 59 -12 21 -22 27 -25 40 -14 10 9 15 9 15 1 0 -6 5 -11 10 -11 15 0 12 24 -11 85 -20 54 -21 55 -61 55 -24 0 -49 7 -59 16 -25 22 -98 27 -106 8 -3 -9 -1 -20 6 -27 16 -16 14 -36 -9 -64 -11 -14 -23 -43 -26 -65 -8 -46 -40 -71 -59 -44 -13 17 -55 22 -55 6 0 -16 -19 -11 -37 10 -10 11 -24 20 -31 20 -10 0 -12 7 -8 23 3 12 6 41 6 65 0 29 5 44 15 49 9 3 34 23 57 45 28 27 46 37 59 33 12 -4 21 -1 25 9 3 8 12 12 20 9 8 -3 14 0 14 6 0 6 6 11 13 11 8 0 22 9 32 20 18 19 19 20 35 2 9 -10 22 -31 28 -47 6 -18 11 -23 11 -12 1 24 16 21 45 -10 22 -24 28 -25 50 -15 20 9 26 19 26 43 0 37 24 69 52 69 27 0 68 -45 68 -74 0 -39 17 -39 23 0 8 49 2 60 -58 99 -73 49 -101 46 -175 -18 -20 -17 -36 -25 -38 -19 -5 16 16 35 73 66 65 34 109 33 166 -3z" fill="#03a9f4"/>
<path d="M4255 9013 c-27 -9 -41 -10 -43 -3 -5 13 -34 -25 -53 -67 -14 -33 -29 -44 -29 -21 0 6 -2 9 -5 7 -2 -3 4 -29 15 -57 11 -29 20 -61 20 -72 0 -12 10 -24 23 -29 13 -5 43 -28 66 -50 23 -23 46 -41 51 -41 5 0 12 -9 15 -20 3 -11 15 -20 26 -20 13 0 19 -7 19 -23 0 -43 33 -60 121 -64 99 -5 127 8 125 59 l-2 33 -59 0 -60 0 -3 53 c-2 39 1 54 12 58 20 8 116 -36 116 -53 0 -7 9 -13 20 -13 11 0 23 -7 26 -15 5 -11 22 -15 63 -15 31 0 62 4 69 8 14 9 6 42 -10 42 -5 0 -7 4 -3 9 3 5 -3 12 -13 15 -10 4 -25 18 -32 31 -7 14 -16 25 -20 25 -4 0 -19 10 -33 23 -14 12 -43 33 -64 45 -49 30 -52 52 -7 52 26 0 32 4 28 15 -4 8 -1 15 5 15 6 0 11 -7 11 -15 0 -8 9 -15 21 -15 18 0 19 2 5 21 -18 26 -52 44 -102 53 -21 5 -44 12 -50 17 -15 12 -137 29 -147 19 -4 -4 -25 -4 -46 0 -23 4 -52 1 -76 -7z" fill="#03a9f4"/>
<path d="M6237 6797 c-10 -78 -20 -160 -23 -182 l-6 -40 19 30 c11 17 43 59 72 95 28 35 54 75 58 88 6 26 -14 69 -51 110 -49 55 -51 52 -69 -101z" fill="#03a9f4"/>
<path d="M6720 6766 c0 -40 14 -53 36 -35 8 6 17 9 21 5 3 -3 0 -6 -8 -6 -34 0 167 -84 231 -96 19 -4 41 -11 48 -17 9 -7 12 -3 12 15 0 27 -17 48 -37 48 -8 0 -32 9 -54 19 -22 11 -54 23 -72 27 -18 3 -49 15 -70 26 -22 11 -46 17 -55 13 -9 -3 -13 -3 -9 1 7 7 -21 33 -35 34 -5 0 -8 -15 -8 -34z" fill="#03a9f4"/>
<path d="M6335 6697 c-16 -23 -30 -47 -31 -54 -3 -19 22 -4 34 20 l11 22 0 -23 c1 -13 5 -20 11 -17 12 8 12 3 1 -27 -15 -41 -23 -84 -12 -68 17 25 21 6 12 -46 -9 -49 -7 -64 9 -64 5 0 6 7 3 17 -4 11 -3 14 6 9 7 -4 9 -16 5 -28 -5 -15 11 -36 74 -96 55 -54 84 -91 96 -123 l17 -45 97 -12 c109 -14 171 -15 107 -2 -22 4 -65 11 -95 15 -30 3 -63 8 -73 11 -28 9 -9 24 31 25 l37 1 -42 11 c-31 9 -40 16 -34 25 6 10 21 11 72 3 35 -6 84 -10 109 -10 36 1 31 3 -28 10 -93 11 -135 22 -140 37 -3 10 16 11 80 7 45 -4 93 -8 104 -10 19 -4 22 1 27 51 6 61 3 134 -8 177 -11 40 12 34 30 -9 8 -20 15 -54 15 -75 0 -22 4 -39 8 -39 11 0 3 102 -9 117 -15 17 5 24 27 9 10 -8 23 -12 29 -9 24 9 39 -30 45 -120 4 -56 8 -77 10 -52 5 55 5 63 -4 118 -7 44 -6 48 11 45 20 -4 32 -51 32 -140 l1 -56 97 -7 c83 -7 261 -1 270 9 2 1 6 31 9 65 5 48 10 61 21 57 8 -4 17 -6 19 -6 2 0 5 -19 6 -42 l1 -43 4 38 c3 29 9 37 24 37 13 0 19 -7 20 -22 1 -17 2 -19 6 -5 5 19 12 21 32 8 8 -5 11 -16 6 -30 -4 -12 -2 -21 4 -21 6 0 11 9 11 20 0 22 7 25 28 11 9 -5 13 -23 10 -51 l-3 -44 60 -11 c65 -13 77 -18 145 -55 56 -30 109 -50 135 -50 13 0 24 -10 31 -27 11 -31 2 -115 -17 -150 -15 -28 -2 -46 13 -19 6 10 28 37 49 60 44 46 45 49 24 66 -10 9 -15 9 -15 1 0 -6 -7 -11 -15 -11 -8 0 -15 5 -15 10 0 6 5 10 10 10 14 0 12 16 -5 33 -7 8 -17 26 -21 41 -3 14 -9 26 -13 27 -16 2 -38 8 -61 17 -22 9 -22 11 -5 12 l20 1 -20 11 c-11 7 -36 17 -55 24 -19 7 -35 17 -35 22 0 19 -13 23 -33 11 -18 -11 -24 -10 -39 3 -10 9 -43 30 -73 46 -42 22 -54 34 -53 49 2 15 -8 24 -35 36 -58 25 -131 45 -207 56 -38 7 -82 14 -97 17 -20 4 -28 1 -32 -14 -6 -17 -11 -19 -54 -10 -26 5 -54 12 -62 15 -8 3 -24 6 -35 7 -12 1 -21 9 -23 23 -3 17 -12 22 -50 26 -82 10 -116 18 -167 42 -27 13 -67 25 -87 28 -31 5 -38 2 -43 -14 -5 -15 -12 -18 -33 -13 -15 4 -35 11 -44 15 -28 15 -29 11 -22 -53 l6 -63 -48 49 c-27 27 -64 55 -82 63 -18 7 -35 20 -39 28 -9 24 -19 17 -38 -25 -19 -42 -42 -56 -29 -17 11 33 12 107 2 107 -5 0 -6 9 -3 20 9 29 4 25 -30 -23z" fill="#03a9f4"/>
<path d="M3561 6581 c-8 -5 -9 -10 -2 -12 7 -3 8 -14 2 -34 -9 -29 -12 -29 -15 -3 0 6 -7 13 -13 16 -16 5 -17 -94 -3 -188 15 -92 14 -91 49 -79 21 8 36 7 52 -2 20 -10 21 -13 6 -24 -13 -9 -14 -14 -4 -25 9 -10 9 -14 -1 -17 -10 -4 -10 -10 3 -29 14 -22 14 -24 -1 -24 -15 0 -15 -2 1 -26 l17 -27 -36 7 -36 7 -1 -78 -1 -78 -19 50 c-16 43 -18 45 -14 15 3 -19 8 -64 11 -100 3 -36 7 -80 9 -97 4 -37 -11 -46 -18 -10 -3 16 -5 13 -6 -10 0 -18 3 -33 9 -33 5 0 7 -13 4 -29 -6 -28 -5 -30 37 -35 24 -3 60 -7 79 -8 23 -2 35 -8 35 -18 0 -11 -15 -17 -55 -21 -50 -5 -51 -6 -14 -7 52 -2 79 -28 39 -38 -14 -3 -43 -4 -63 -1 -25 5 -32 3 -22 -3 8 -5 33 -10 55 -11 22 0 34 -3 27 -6 -6 -2 -10 -9 -6 -14 3 -5 -16 -9 -43 -10 -36 0 -43 -3 -28 -9 11 -5 35 -9 53 -9 65 -2 24 -31 -44 -31 -28 0 -32 4 -36 33 -11 76 -42 206 -48 202 -3 -2 -7 -23 -9 -47 -4 -78 -16 -143 -26 -140 -12 3 -8 97 5 132 13 34 22 137 12 125 -5 -6 -15 -44 -23 -85 -29 -160 -34 -220 -20 -220 6 0 11 6 12 13 1 6 5 -6 10 -27 5 -21 17 -45 27 -53 16 -14 16 -14 0 -9 -26 8 -23 -26 3 -42 12 -7 18 -16 15 -19 -3 -3 -12 0 -21 7 -18 15 -21 -1 -5 -30 8 -16 8 -18 -5 -14 -21 9 -19 -2 7 -26 12 -11 18 -23 13 -27 -4 -5 -10 -2 -12 5 -8 21 -23 13 -23 -13 0 -14 -5 -25 -11 -25 -8 0 -10 12 -6 33 3 19 2 39 -2 46 -9 14 -23 -55 -22 -101 1 -30 -16 -38 -25 -13 -4 8 -12 15 -19 15 -8 0 -17 9 -20 20 -4 11 -10 18 -15 15 -19 -12 -27 31 -18 98 l9 69 -63 58 c-35 33 -69 59 -75 60 -7 0 -13 4 -13 8 0 5 -21 24 -47 42 -27 19 -51 39 -55 44 -13 19 -9 -13 4 -34 7 -10 9 -23 5 -27 -5 -4 -12 -1 -17 7 -6 8 -10 13 -11 10 -4 -21 -8 -69 -13 -151 -3 -52 -10 -107 -15 -121 -9 -23 -6 -29 17 -47 44 -34 182 -121 191 -121 5 0 12 -7 15 -16 5 -13 1 -15 -21 -9 -16 3 -35 13 -44 21 -18 16 -33 19 -24 4 4 -6 28 -21 54 -34 26 -14 54 -32 62 -42 13 -15 12 -16 -10 -9 -14 4 -38 16 -55 26 -17 11 -35 19 -41 19 -14 -1 37 -40 53 -40 6 0 12 -4 12 -10 0 -5 16 -16 35 -24 37 -16 42 -25 24 -43 -8 -8 -6 -14 7 -21 11 -6 24 -9 29 -9 6 1 11 -15 12 -35 2 -29 -2 -38 -14 -38 -11 0 -14 6 -9 25 6 23 2 28 -41 46 -87 37 -238 113 -253 128 -13 13 -15 11 -18 -14 -4 -34 -32 -80 -32 -53 0 25 -16 30 -31 11 -9 -11 -10 -14 -2 -10 8 5 15 -1 19 -18 3 -14 13 -25 21 -25 13 0 15 -10 9 -57 -3 -32 -9 -87 -12 -123 l-7 -66 89 -44 c49 -24 114 -61 145 -82 54 -36 99 -49 99 -28 0 6 -5 10 -10 10 -12 0 -3 119 10 133 10 11 22 -56 14 -77 -3 -9 -1 -16 5 -16 6 0 11 17 11 37 0 20 3 33 7 29 9 -8 9 -10 13 -86 1 -30 5 -45 7 -32 6 33 23 27 23 -9 0 -18 4 -28 10 -24 6 4 10 12 9 18 -4 30 2 57 12 57 7 0 9 -12 5 -35 -9 -47 -1 -71 27 -79 17 -4 19 -8 9 -18 -10 -10 -15 -10 -22 2 -8 12 -10 10 -10 -7 0 -16 6 -23 20 -23 11 0 20 -7 20 -15 0 -8 -8 -15 -17 -15 -15 0 -10 -14 5 -16 18 -2 42 -17 42 -26 0 -6 -14 -8 -35 -4 -41 8 -49 -9 -11 -24 41 -15 40 -30 0 -27 -35 2 -38 0 -46 -33 -5 -19 -9 -47 -9 -62 0 -16 -5 -28 -11 -28 -5 0 -7 -7 -4 -16 5 -12 -56 -219 -69 -232 -1 -1 -14 2 -29 7 -21 9 -26 8 -26 -4 0 -8 6 -15 14 -15 8 0 22 -7 30 -16 9 -8 16 -11 16 -5 0 6 7 8 15 5 12 -5 13 -10 4 -20 -9 -11 -8 -14 5 -14 15 0 16 -11 1 -84 -2 -10 0 -29 5 -42 8 -19 5 -29 -11 -45 -11 -11 -17 -24 -14 -28 2 -5 -2 -14 -10 -21 -9 -7 -13 -21 -10 -31 4 -13 1 -19 -9 -19 -19 0 -21 -11 -5 -27 8 -8 7 -17 -5 -34 -9 -13 -16 -33 -16 -46 0 -13 -19 -41 -45 -67 -25 -26 -45 -51 -45 -56 0 -15 -29 -12 -46 5 -22 22 -35 18 -31 -7 2 -13 2 -17 0 -10 -9 27 -37 7 -40 -27 -4 -43 -7 -46 -27 -26 -15 15 -16 15 -16 -4 0 -12 5 -21 10 -21 15 0 12 -17 -4 -23 -10 -4 -13 -1 -9 9 3 9 -1 14 -12 14 -9 0 -16 -7 -14 -17 3 -32 -1 -44 -12 -37 -6 3 -24 -3 -40 -15 -15 -11 -34 -21 -42 -21 -32 0 -64 -27 -82 -67 -13 -29 -28 -46 -43 -50 -14 -3 -21 -11 -18 -19 4 -10 -2 -14 -19 -14 -14 0 -25 -4 -25 -10 0 -5 9 -10 19 -10 26 0 34 -15 19 -32 -7 -8 -18 -23 -24 -33 -8 -13 -20 -19 -35 -17 -30 3 -33 7 -20 31 6 11 13 34 15 51 3 24 0 30 -11 26 -8 -3 -17 -6 -19 -6 -2 0 -4 -13 -4 -30 0 -16 -4 -30 -9 -30 -4 0 -8 10 -7 23 1 12 -3 25 -9 30 -6 5 -4 11 8 18 23 14 22 29 -3 29 -11 0 -20 -7 -20 -15 0 -8 -3 -15 -7 -15 -5 0 -7 39 -6 87 l3 88 -22 -37 c-12 -21 -25 -38 -29 -38 -3 0 -5 27 -3 61 2 51 0 60 -13 55 -8 -3 -17 -6 -19 -6 -2 0 -4 -6 -4 -14 0 -8 -5 -18 -12 -22 -8 -5 -9 0 -6 14 4 12 2 20 -2 17 -5 -3 -14 4 -20 15 -22 40 -35 16 -37 -66 -1 -43 -4 -135 -7 -204 -3 -69 -3 -117 0 -108 3 10 11 15 20 11 16 -6 20 -73 4 -73 -5 0 -10 -12 -9 -27 l1 -28 7 25 c9 33 50 41 58 10 7 -28 27 -20 31 13 4 32 22 36 22 5 0 -12 3 -18 8 -14 4 4 7 16 7 27 0 10 5 19 10 19 6 0 12 -26 15 -57 4 -51 6 -56 17 -38 15 24 17 11 3 -16 -13 -24 -30 -25 -30 -1 0 10 -7 27 -15 38 -14 19 -14 19 -14 -1 2 -43 15 -69 39 -75 25 -6 37 -33 45 -103 3 -29 0 -39 -16 -47 -10 -6 -19 -16 -18 -23 0 -9 2 -9 6 1 6 14 33 16 33 2 0 -5 -9 -19 -20 -30 -11 -11 -20 -26 -20 -34 0 -8 -5 -18 -11 -22 -8 -4 -9 3 -4 26 5 23 4 30 -4 26 -14 -9 -15 -73 -1 -81 7 -4 7 -12 0 -25 -14 -26 -13 -30 9 -30 12 0 24 -12 32 -29 7 -16 17 -27 22 -24 5 3 4 -5 -3 -17 -15 -28 -9 -34 24 -19 32 15 37 10 39 -31 2 -23 -4 -36 -18 -44 -10 -6 -26 -17 -35 -25 -13 -13 -13 -14 2 -8 10 3 20 2 23 -3 4 -6 -1 -10 -9 -10 -9 0 -16 -7 -16 -15 0 -18 -11 -19 -62 -3 -25 7 -44 21 -51 35 -5 13 -14 23 -19 23 -4 0 -8 10 -8 23 0 18 2 19 10 7 8 -11 10 -5 8 25 -2 26 -8 39 -15 38 -7 -2 -18 -4 -24 -5 -6 -2 -14 3 -16 10 -3 6 2 12 11 12 20 0 20 17 0 37 -10 10 -13 25 -9 44 6 27 0 34 -27 30 -5 0 -8 11 -9 27 0 15 -3 22 -5 15 -3 -7 -12 -9 -21 -6 -13 5 -15 2 -9 -18 3 -13 9 -44 12 -69 6 -47 38 -170 54 -205 4 -11 13 -35 19 -54 16 -50 80 -128 131 -161 66 -42 241 -102 391 -134 73 -15 368 -69 443 -81 26 -4 40 -12 43 -26 4 -15 9 -17 19 -8 15 12 34 4 34 -14 0 -7 -4 -6 -10 3 -10 16 -14 8 -10 -24 1 -10 -3 -28 -8 -40 -33 -68 -39 -136 -25 -304 5 -67 10 -85 25 -93 14 -8 24 -7 36 3 13 11 15 11 9 -4 -5 -13 -1 -18 12 -18 11 0 21 -4 23 -9 5 -15 127 -60 133 -50 4 5 2 9 -4 9 -6 0 -15 10 -22 22 l-11 21 31 -22 c31 -22 31 -22 31 -2 0 12 4 21 9 21 4 0 38 -28 74 -63 65 -63 68 -64 194 -101 70 -21 135 -40 144 -42 11 -3 19 4 24 18 8 22 8 22 12 -4 7 -46 23 -31 23 20 0 27 3 52 7 56 4 4 8 21 8 39 3 52 4 57 19 57 14 0 14 -18 -3 -152 l-7 -56 65 -16 c228 -53 351 -70 361 -51 3 5 -4 11 -15 13 -11 3 -23 10 -28 18 -4 7 -14 11 -22 8 -8 -4 -15 -1 -15 5 0 6 -25 29 -56 52 -63 46 -67 64 -5 25 22 -14 43 -21 46 -16 3 5 -11 18 -32 29 -21 11 -49 30 -63 41 l-25 21 25 -7 c14 -4 32 -9 40 -12 13 -5 13 -3 1 11 -7 9 -20 17 -27 17 -8 0 -26 11 -41 25 -16 14 -37 32 -48 40 -19 14 -19 15 7 6 14 -6 59 -25 98 -44 39 -18 73 -30 76 -25 3 4 -8 13 -23 20 -15 7 -30 15 -33 18 -3 3 -43 24 -90 48 -82 42 -137 78 -129 86 2 2 63 -25 134 -60 72 -35 139 -64 151 -64 11 0 25 -5 32 -12 9 -9 12 -6 12 15 0 41 30 36 31 -5 2 -31 2 -31 6 -5 6 41 33 35 33 -8 0 -19 5 -35 10 -35 6 0 10 11 10 25 0 26 14 33 26 14 3 -6 2 -15 -4 -21 -22 -22 3 -38 129 -84 71 -25 126 -50 124 -54 -6 -9 -44 -2 -61 11 -6 5 -13 6 -17 3 -3 -3 -16 0 -29 7 -12 7 -27 14 -33 15 -5 1 -21 5 -35 8 -73 17 -85 18 -75 8 11 -11 160 -62 182 -62 7 0 13 -4 13 -10 0 -5 -9 -10 -20 -10 -33 0 -154 32 -161 43 -4 5 -9 5 -13 -2 -8 -12 -6 -13 69 -31 28 -7 54 -17 59 -21 6 -5 35 -9 66 -9 31 0 79 -7 106 -15 27 -8 50 -15 52 -15 1 0 2 9 2 21 0 41 25 12 26 -30 0 -23 5 -46 11 -52 6 -6 58 -8 128 -7 98 3 114 5 94 15 -77 36 -118 53 -147 59 -17 4 -32 11 -32 16 0 12 64 -1 68 -13 2 -5 16 -9 30 -9 27 0 99 -22 134 -41 14 -8 18 -6 19 8 2 29 -2 47 -12 58 -7 7 -8 4 -4 -7 4 -10 4 -25 1 -34 -6 -16 -8 -16 -24 0 -10 9 -24 16 -31 16 -7 0 -26 9 -41 20 -20 14 -37 18 -57 14 -72 -14 -87 90 -17 116 31 12 74 -6 74 -31 0 -10 9 -23 20 -29 29 -15 25 -33 -6 -27 -19 3 -24 1 -20 -10 3 -8 6 -17 6 -19 0 -2 11 -2 24 2 13 3 27 1 31 -5 9 -16 25 -3 18 14 -6 17 13 20 23 4 4 -8 9 -7 15 2 8 12 11 11 19 -1 5 -8 10 -25 10 -37 0 -25 15 -39 26 -22 3 6 1 15 -6 19 -15 9 -9 52 8 58 7 2 12 -7 13 -25 l1 -28 10 33 c10 29 38 46 38 22 0 -5 -4 -10 -10 -10 -6 0 -5 -10 2 -26 10 -20 9 -27 -2 -34 -10 -6 -6 -10 16 -15 16 -4 38 -11 49 -16 11 -5 29 -9 40 -8 11 1 38 1 60 0 36 -3 37 -4 15 -11 l-25 -8 28 -1 c15 -1 27 4 27 9 0 6 15 8 38 5 20 -3 69 0 107 8 63 12 70 16 70 37 0 21 8 26 70 42 96 24 107 24 99 -6 -8 -33 11 -36 129 -14 107 19 126 26 107 38 -8 5 -3 7 13 7 14 -1 23 -5 20 -10 -2 -4 0 -7 6 -7 5 0 13 5 16 10 4 6 11 8 16 5 5 -3 6 2 2 12 -5 15 -3 16 8 6 18 -17 39 -16 39 1 0 10 11 15 38 14 124 -1 628 189 912 346 188 103 300 175 300 192 0 7 5 16 11 20 8 4 9 -1 4 -16 l-7 -22 22 22 c12 12 22 30 23 40 1 11 6 16 17 12 8 -3 12 -2 8 3 -4 4 -2 15 4 23 7 8 17 24 23 36 10 21 46 27 85 14 8 -3 12 -3 8 -1 -11 6 -10 33 1 33 5 0 12 -6 14 -12 3 -8 6 -6 6 5 1 9 8 17 17 17 14 0 15 -2 3 -18 -13 -16 -13 -16 7 1 11 9 24 14 28 10 4 -4 4 1 0 11 -5 13 -4 17 4 12 6 -3 23 5 39 19 23 20 25 24 10 25 -10 0 -15 -4 -12 -10 3 -5 1 -10 -4 -10 -17 0 -13 15 8 34 18 17 20 16 26 -5 7 -20 9 -21 19 -8 6 9 29 29 51 45 23 16 47 35 55 42 8 7 23 18 32 25 22 15 34 124 49 442 6 127 14 264 18 305 4 41 4 125 0 185 -21 328 -30 446 -39 505 -5 36 -12 91 -16 123 -6 64 -4 64 -83 29 -20 -9 -43 -17 -51 -18 -30 -3 -129 -35 -134 -43 -7 -10 22 -37 30 -28 7 7 64 -57 64 -72 0 -6 -7 -11 -15 -11 -8 0 -15 -7 -15 -15 0 -8 6 -15 13 -15 7 0 18 -5 25 -12 9 -9 8 -14 -4 -23 -19 -13 -28 -71 -14 -80 15 -9 12 -64 -4 -80 -15 -16 -14 -71 3 -102 14 -27 14 -53 1 -53 -5 0 -10 -7 -10 -15 0 -9 9 -15 23 -15 18 0 19 -2 7 -10 -13 -9 -11 -13 9 -29 19 -14 20 -19 8 -24 -9 -3 -13 -14 -10 -30 3 -17 -2 -32 -16 -46 -11 -11 -23 -32 -27 -46 -3 -14 -11 -25 -16 -25 -5 0 -17 -7 -26 -16 -14 -15 -14 -17 1 -25 9 -5 14 -16 11 -24 -7 -17 11 -21 21 -5 9 15 25 12 25 -5 0 -8 -5 -15 -11 -15 -6 0 -8 -7 -5 -15 3 -10 1 -15 -7 -14 -6 1 -23 -3 -37 -10 -23 -11 -23 -11 -2 -7 12 2 22 0 22 -5 0 -11 -37 -27 -74 -32 -33 -4 -44 -16 -26 -27 13 -8 12 -10 -2 -10 -16 0 -22 -13 -21 -48 1 -9 -9 -11 -36 -7 -27 5 -32 4 -21 -4 13 -10 13 -12 0 -21 -24 -16 -45 -13 -31 4 8 10 9 16 1 21 -5 3 -10 1 -10 -4 0 -6 -6 -11 -14 -11 -22 0 -26 69 -5 89 10 9 29 33 43 54 19 28 22 37 11 37 -8 0 -15 -7 -15 -15 0 -8 -3 -15 -7 -16 -5 -1 -32 -3 -60 -4 -41 -3 -53 0 -53 11 0 8 -4 14 -9 14 -10 0 -8 66 4 92 4 10 5 23 2 30 -2 7 -8 1 -12 -14 -5 -21 -13 -28 -31 -28 -27 0 -32 17 -9 26 21 8 19 21 -4 27 -15 3 -19 17 -23 72 -4 47 -11 71 -21 77 -9 5 -22 14 -29 22 -7 7 -20 15 -28 19 -12 4 -11 6 3 6 9 1 17 5 17 10 0 5 3 17 7 27 5 15 2 16 -25 11 -19 -4 -32 -2 -32 3 0 6 -5 10 -10 10 -20 0 -36 24 -32 47 2 13 9 23 14 23 5 0 6 5 3 10 -3 6 -1 10 4 10 6 0 11 5 11 10 0 6 -9 10 -20 10 -19 0 -29 28 -32 90 -1 14 -5 30 -10 37 -5 6 -5 14 2 18 22 13 8 43 -32 71 -41 29 -41 29 -15 32 15 2 27 10 27 18 0 11 18 14 88 15 139 0 345 19 358 32 7 6 -38 12 -76 9 -76 -5 -476 -8 -515 -3 -48 6 -50 7 -55 41 -4 26 -11 36 -30 40 l-25 6 22 12 c17 9 23 9 27 -1 3 -6 4 13 2 43 -2 30 0 61 5 70 4 8 10 23 13 33 8 25 26 11 27 -21 l2 -27 4 25 c6 30 24 44 35 27 6 -9 10 -9 16 1 5 7 16 10 24 7 9 -4 19 -2 23 4 3 6 3 11 -2 11 -14 0 -12 218 2 224 14 5 27 -120 25 -236 l-1 -68 43 -1 c79 -1 192 3 278 9 l84 7 -4 130 c-2 72 -4 163 -4 203 l-1 72 -155 0 c-145 0 -198 -8 -238 -34 -7 -4 -11 -14 -9 -20 8 -20 -9 -40 -27 -33 -12 5 -15 14 -10 32 4 15 2 25 -5 25 -7 0 -11 -23 -11 -61 0 -45 -3 -58 -12 -53 -10 6 -10 4 0 -7 16 -17 15 -26 -1 -32 -8 -3 -14 0 -15 6 -2 25 -10 92 -12 102 -6 32 -15 -48 -10 -97 4 -43 2 -58 -7 -58 -17 0 -26 42 -20 96 3 33 1 44 -9 44 -21 0 -17 17 7 34 16 11 20 21 16 38 -4 13 0 29 9 39 9 10 15 38 15 77 l1 60 37 1 c20 1 44 2 54 2 12 0 17 8 17 29 0 16 5 32 11 36 9 5 10 -1 5 -20 -9 -36 2 -70 17 -58 7 5 26 5 47 0 31 -9 33 -11 15 -20 -10 -6 -36 -10 -57 -10 -21 1 -38 -3 -38 -8 0 -6 26 -10 58 -10 l57 -1 -34 -14 c-18 -8 -45 -15 -60 -15 -19 0 -22 -3 -12 -9 8 -5 31 -7 50 -5 20 3 45 6 56 7 11 1 23 6 27 11 7 10 31 14 102 15 81 2 46 11 -45 12 -81 1 -83 2 -49 14 19 8 65 16 103 20 84 8 88 25 5 25 -83 0 -65 18 33 32 69 10 94 22 83 39 -2 4 1 41 6 83 6 41 12 96 13 122 1 27 6 47 12 47 17 -3 24 -64 14 -123 -5 -30 -8 -68 -8 -85 1 -29 1 -29 11 8 6 20 15 37 21 37 7 0 6 5 -3 11 -13 9 -13 10 0 6 8 -2 16 -9 16 -15 6 -50 21 1 22 73 1 58 0 59 -9 20 -17 -72 -23 -71 -29 5 -8 83 2 138 15 88 10 -40 21 -34 21 12 0 27 -3 37 -10 30 -15 -15 -26 -12 -20 4 6 17 -12 31 -21 16 -8 -13 -115 -13 -115 -1 0 17 18 22 82 25 34 2 64 8 66 14 4 12 -130 3 -139 -10 -3 -5 -23 -12 -45 -15 -35 -6 -38 -5 -25 10 7 9 16 15 20 12 4 -2 27 3 52 11 46 16 60 21 119 34 l35 8 -38 1 c-21 0 -46 -3 -55 -8 -9 -5 -42 -11 -72 -14 -30 -3 -46 -3 -35 0 11 3 27 11 35 18 8 7 31 16 50 20 52 11 74 27 28 21 -59 -8 -49 20 14 39 28 8 58 15 65 15 10 0 12 15 9 63 -2 34 -6 76 -9 92 -4 17 -9 70 -13 118 -4 48 -11 90 -15 93 -5 2 -16 0 -26 -5 -72 -38 -189 -69 -204 -54 -11 11 80 49 142 59 21 4 39 10 39 15 0 13 -22 11 -69 -6 -52 -18 -142 -35 -136 -24 3 4 37 20 76 35 38 15 73 32 76 37 3 5 -4 4 -16 -3 -12 -6 -36 -10 -54 -8 l-32 4 50 23 c28 13 61 27 74 32 41 16 17 19 -34 4 -62 -19 -71 -19 -54 2 15 18 111 63 134 63 25 0 26 19 6 119 -22 105 -27 166 -12 157 4 -3 14 -27 21 -53 17 -68 20 -76 24 -72 2 2 -4 44 -14 94 -10 49 -16 93 -13 97 7 13 23 -2 23 -22 0 -10 3 -21 8 -24 13 -8 0 73 -14 85 -15 12 -95 -13 -115 -37 -6 -8 -16 -14 -22 -14 -6 0 1 12 15 28 15 15 32 38 37 52 6 14 15 32 20 40 11 18 37 110 46 163 5 34 3 39 -26 55 -17 9 -68 38 -112 65 -80 47 -110 54 -167 38 -20 -5 -25 -14 -27 -46 -1 -21 -7 -61 -13 -89 -6 -28 -15 -73 -20 -101 -4 -27 -11 -62 -15 -77 -7 -27 -6 -28 24 -22 23 5 31 3 31 -8 0 -8 -3 -17 -6 -21 -12 -12 -13 -92 -1 -99 6 -4 8 -10 4 -14 -4 -4 -13 -2 -19 4 -16 16 -33 16 -21 0 6 -7 13 -21 16 -31 6 -16 2 -18 -25 -15 -31 3 -33 1 -39 -37 -4 -22 -15 -116 -24 -210 -20 -207 -49 -349 -75 -365 -5 -3 -12 -33 -15 -65 -8 -71 -40 -224 -50 -233 -4 -4 -5 17 -4 46 2 28 1 52 -3 52 -3 0 -8 -25 -10 -55 -2 -42 0 -55 11 -55 10 0 12 -10 6 -42 -3 -24 -8 -54 -10 -68 -1 -14 -6 -56 -10 -93 -4 -38 -14 -74 -21 -82 -7 -7 -11 -15 -8 -18 9 -9 -8 -77 -17 -71 -5 3 -9 21 -9 40 0 55 -20 39 -22 -18 -1 -49 -3 -70 -7 -106 0 -7 -6 -10 -12 -6 -8 4 -7 9 2 15 10 6 11 11 3 17 -6 4 -12 31 -13 61 -2 63 -6 71 -28 71 -9 0 -43 28 -76 63 -45 47 -58 56 -52 37 3 -14 20 -37 36 -51 16 -14 29 -30 29 -36 0 -6 6 -13 14 -16 7 -3 16 -18 19 -34 4 -24 -2 -20 -54 36 -32 36 -59 68 -59 73 0 20 -31 5 -73 -37 -26 -25 -50 -45 -54 -45 -5 0 -16 -14 -25 -30 -9 -17 -22 -30 -28 -30 -20 0 -9 19 34 57 24 21 47 49 51 63 8 25 8 25 -14 6 -28 -25 -27 -14 4 34 19 31 22 40 10 40 -9 0 -12 6 -9 15 10 26 -1 16 -40 -35 -57 -74 -85 -86 -44 -18 18 29 37 56 42 60 20 13 -4 21 -29 10 -14 -7 -38 -12 -52 -12 -14 0 -31 -8 -38 -17 -17 -23 -132 -29 -250 -14 -48 7 -90 10 -92 7 -3 -3 9 -25 25 -50 36 -53 23 -77 -15 -30 -13 16 -33 40 -43 52 -11 13 -20 28 -20 33 0 5 -7 9 -15 9 -21 0 -19 -13 4 -27 25 -16 53 -71 39 -79 -5 -3 -20 4 -34 17 -24 23 -35 14 -11 -10 13 -14 7 -13 -35 8 -16 8 -28 20 -28 27 0 15 -19 29 -27 20 -4 -3 15 -33 41 -67 26 -33 46 -63 43 -65 -7 -7 -57 36 -57 49 0 7 -9 18 -20 25 -11 7 -20 19 -20 27 0 8 -4 15 -10 15 -5 0 -28 25 -51 55 -23 30 -45 55 -50 55 -17 0 -9 -25 12 -38 12 -8 18 -19 15 -28 -3 -8 1 -14 9 -14 7 0 17 -5 20 -10 8 -14 -13 -40 -32 -40 -8 0 -36 -18 -62 -40 -26 -22 -55 -40 -64 -40 -9 0 -17 -7 -17 -15 0 -8 -6 -12 -14 -9 -12 5 -12 9 2 26 26 31 76 78 84 78 4 0 19 11 34 25 52 48 -1 25 -68 -30 -40 -32 -68 -49 -68 -41 0 10 -18 16 -62 21 -114 11 -199 11 -206 0 -9 -13 -29 -326 -23 -340 3 -5 4 -22 2 -37 -2 -27 0 -28 41 -29 24 -1 57 -3 73 -4 17 -1 56 -2 88 -3 49 -2 58 -5 55 -19 -3 -16 -17 -17 -133 -14 -72 1 -127 -1 -123 -5 4 -4 53 -9 108 -11 99 -4 160 -17 146 -31 -4 -4 -67 -5 -139 -3 -73 1 -130 1 -127 -2 3 -2 52 -7 110 -11 136 -8 153 -10 157 -23 6 -17 -16 -20 -102 -14 -44 3 -98 3 -120 0 l-40 -6 35 -2 c19 -1 73 -4 120 -7 94 -5 110 -9 110 -23 0 -6 -54 -12 -137 -13 l-138 -3 -2 -85 c-1 -47 -2 -107 -3 -135 -1 -46 -2 -49 -16 -30 -11 15 -13 38 -9 102 4 52 2 83 -4 83 -5 0 -11 -17 -13 -37 -2 -20 -9 -39 -17 -41 -11 -4 -13 9 -9 66 3 40 1 69 -3 66 -5 -3 -9 -27 -9 -53 0 -63 -10 -111 -23 -111 -6 0 -8 33 -4 90 3 50 2 90 -2 90 -11 0 -21 -78 -21 -169 0 -42 -4 -92 -8 -111 -4 -19 -5 -55 -1 -80 6 -47 10 -50 14 -13 5 43 14 56 30 43 10 -9 15 -9 15 -1 0 6 7 11 15 11 11 0 15 -11 15 -40 0 -40 5 -46 27 -32 8 5 9 13 3 22 -15 23 -12 50 5 50 14 0 19 -16 16 -51 -1 -13 13 -17 81 -23 46 -3 106 -2 135 2 40 7 50 6 46 -4 -6 -17 -133 -37 -204 -32 -33 2 -59 1 -59 -2 0 -14 108 -19 193 -10 116 14 247 7 262 -13 6 -9 31 -17 56 -19 40 -3 44 -5 41 -27 -2 -22 0 -23 33 -17 54 10 42 -11 -12 -22 -27 -6 -57 -10 -68 -10 -11 0 -42 -2 -70 -5 -27 -3 -64 -1 -82 6 -24 8 -55 7 -125 -3 -51 -7 -127 -14 -168 -14 l-75 -1 -12 -90 c-14 -107 -11 -95 -23 -95 -12 0 -11 45 2 119 6 34 6 57 0 63 -11 11 -18 -20 -28 -124 -5 -51 -11 -68 -22 -68 -13 0 -14 13 -8 82 4 45 12 88 18 95 8 10 7 13 -5 13 -11 0 -16 -17 -21 -67 -12 -125 -18 -154 -30 -150 -12 4 -10 99 4 176 l8 43 -28 -5 c-15 -3 -32 -1 -38 5 -14 14 -20 -1 -24 -57 -2 -22 -7 -39 -13 -37 -5 2 -16 -18 -25 -44 -20 -64 -41 -72 -26 -10 7 25 15 48 19 52 4 4 7 14 7 22 0 12 -3 12 -15 2 -13 -10 -15 -9 -15 9 0 16 -6 21 -24 21 -19 0 -23 4 -19 20 4 15 0 20 -14 20 -22 0 -118 84 -136 119 -12 23 -45 38 -137 61 -25 6 -58 17 -75 25 -49 22 -155 49 -163 41 -4 -4 -7 -26 -7 -48 0 -24 -5 -43 -12 -45 -9 -3 -13 11 -13 50 l0 54 -57 17 c-32 10 -65 21 -73 27 -8 5 -22 12 -30 15 -8 3 -49 19 -90 36 -51 21 -96 32 -140 34 -36 2 -75 6 -87 10 -19 5 -23 3 -23 -17 0 -19 -2 -21 -10 -9 -5 8 -10 22 -10 31 0 10 -15 32 -32 51 -61 64 -119 138 -103 132 8 -3 15 -10 15 -14 0 -4 7 -11 16 -14 15 -6 15 -4 -1 20 -9 15 -11 23 -4 19 9 -6 11 1 6 28 -5 32 5 52 15 30 6 -15 77 -63 91 -63 8 0 17 -6 20 -14 3 -7 20 -16 39 -20 52 -9 102 -18 118 -20 8 -1 47 -12 85 -25 39 -12 84 -24 100 -25 29 -4 48 -9 92 -26 29 -12 34 -4 27 42 -5 31 -4 38 10 38 9 0 16 -4 16 -10 0 -5 -5 -10 -11 -10 -8 0 -8 -4 -1 -12 5 -7 12 -24 14 -37 1 -14 8 -26 15 -28 8 -3 10 8 6 36 -4 28 -2 41 6 41 7 0 9 5 4 13 -14 23 -13 88 3 110 14 20 15 13 13 -91 -2 -62 2 -116 7 -120 8 -8 150 -52 312 -99 34 -9 74 -28 90 -41 15 -13 48 -41 74 -64 59 -51 103 -78 128 -78 12 0 20 -7 20 -16 0 -9 7 -14 18 -12 10 2 16 11 14 22 -2 9 1 23 7 29 5 7 11 43 13 80 3 45 10 72 19 78 12 8 12 10 0 18 -11 7 -13 30 -8 110 4 84 3 101 -9 101 -8 0 -17 7 -20 15 -4 8 -10 15 -15 15 -12 0 -140 98 -155 119 -22 29 -41 21 -47 -21 -3 -22 -11 -46 -17 -52 -9 -8 -10 -2 -5 25 7 37 -7 61 -21 38 -4 -6 -9 -57 -13 -112 -4 -65 -10 -102 -18 -104 -9 -3 -11 24 -6 114 l6 119 -44 17 c-48 17 -162 51 -167 48 -1 -1 -17 5 -36 13 -18 7 -52 17 -75 21 l-41 7 0 -56 c0 -34 -4 -56 -11 -56 -6 0 -9 7 -5 15 3 8 2 15 -3 15 -5 0 -8 17 -8 38 1 67 -18 44 -28 -34 -5 -43 -15 -79 -21 -81 -8 -3 -9 8 -5 34 4 21 6 53 4 71 -1 17 1 32 6 32 5 0 7 9 4 20 -6 22 -22 27 -24 8 -1 -7 -3 -20 -4 -28 -1 -8 -3 -21 -4 -28 -3 -31 -22 3 -19 36 2 21 -2 37 -9 39 -7 3 -13 -10 -15 -34 -4 -52 -22 -48 -28 6 l-5 44 -70 17 c-38 10 -92 23 -120 30 -27 7 -72 16 -100 21 -27 4 -63 11 -79 14 -16 3 -34 7 -40 8 -6 1 -10 -7 -8 -17 2 -10 -2 -23 -10 -27 -9 -6 -14 0 -18 22 -3 16 -9 28 -15 27 -5 -2 -8 -11 -7 -22 2 -11 -1 -16 -7 -12 -6 4 -11 18 -11 32 0 17 -6 24 -19 24 -10 0 -38 11 -62 24 -24 13 -74 33 -110 45 -36 12 -76 33 -89 46 -13 13 -27 22 -31 19 -5 -3 -10 -29 -10 -57 -1 -29 -4 -40 -6 -24 -2 15 -15 38 -28 51 -21 21 -25 22 -28 8 -3 -10 -5 3 -6 28 0 31 2 41 9 30 5 -8 12 -11 16 -7 11 10 -51 65 -82 73 -13 3 -24 10 -24 15 0 12 27 11 51 -1 13 -8 19 -7 19 0 0 10 -6 13 -49 26 -11 4 -11 8 -3 16 8 8 15 8 27 -2 8 -7 19 -10 23 -6 9 10 -27 36 -51 36 -10 0 -15 4 -12 10 3 5 20 7 37 3 24 -5 30 -3 26 8 -2 8 -18 16 -34 17 -16 2 -32 9 -36 15 -6 9 -8 9 -8 0 0 -19 -15 -16 -41 8 -13 11 -19 18 -12 14 7 -3 40 -8 75 -12 65 -6 90 -19 174 -87 45 -35 210 -110 229 -102 13 5 29 170 30 311 0 82 -2 90 -20 93 -11 2 -57 14 -101 28 -45 13 -108 31 -140 40 -34 9 -71 26 -86 41 l-28 27 -1 -35 -1 -34 -7 31 c-13 51 -18 54 -92 54 -38 0 -69 4 -69 9 0 5 21 10 48 10 80 1 92 3 92 11 0 5 -13 11 -30 15 -16 4 -30 11 -30 16 0 5 14 9 30 9 17 0 30 5 30 10 0 6 -14 10 -31 10 -34 0 -37 24 -3 26 37 2 39 5 9 18 l-30 12 33 12 c34 12 82 2 82 -18 0 -5 3 -10 8 -10 4 0 6 44 4 98 -1 53 4 139 11 190 8 50 11 92 7 92 -3 0 -12 -36 -19 -80 -8 -45 -17 -77 -23 -74 -5 3 -8 20 -7 38 1 17 1 40 0 51 -1 17 -3 18 -11 5 -8 -12 -10 -11 -10 8 0 22 -20 32 -20 10 0 -9 -4 -8 -10 2 -6 8 -7 27 -4 42 3 14 0 29 -5 33 -7 4 -8 13 -3 23 8 15 12 49 16 122 1 20 6 25 29 25 20 -1 29 5 32 20 13 69 17 101 20 195 l4 105 -14 -90 c-7 -49 -16 -116 -20 -147 -4 -40 -11 -58 -21 -58 -8 0 -14 6 -14 14 0 30 31 292 36 310 5 15 2 18 -15 13 -26 -6 -91 10 -91 23 0 6 15 10 33 10 l32 0 -25 13 c-14 7 -25 20 -25 29 0 9 -4 20 -8 24 -14 15 -6 24 21 24 l27 0 -24 13 c-14 6 -26 17 -28 24 -4 12 12 11 99 -2 14 -2 31 1 36 8 5 7 17 71 26 142 10 72 19 138 21 147 2 10 0 20 -3 22 -4 2 -59 12 -122 21 -63 9 -124 18 -135 21 -11 2 -26 0 -34 -5z m4122 -854 c48 -21 67 -35 67 -48 0 -11 -6 -19 -14 -19 -9 0 -12 -7 -9 -18 2 -10 -6 -27 -20 -40 -21 -20 -27 -21 -51 -11 -16 7 -25 18 -22 26 4 10 -1 12 -18 7 -14 -3 -27 1 -36 11 -12 15 -12 19 4 30 16 13 16 14 -3 20 -12 3 -21 11 -21 16 0 16 44 9 98 -16 28 -13 52 -20 52 -16 0 8 -81 51 -95 51 -15 0 -54 33 -49 42 7 11 29 4 117 -35z m-83 -365 c0 -15 4 -32 9 -37 6 -6 11 -30 13 -55 3 -40 6 -45 26 -43 28 3 28 -8 1 -25 -11 -7 -18 -19 -15 -27 8 -21 -13 -83 -33 -97 -9 -7 -20 -21 -24 -30 -3 -9 -19 -25 -34 -34 -39 -24 -63 -55 -63 -81 0 -31 -10 -53 -24 -53 -7 0 -10 15 -8 43 2 31 1 38 -7 27 -6 -8 -11 -30 -11 -47 0 -18 -4 -33 -9 -33 -5 0 -9 -21 -8 -47 1 -38 -3 -49 -17 -51 -38 -8 -5 166 39 203 14 12 27 36 31 59 6 36 5 38 -15 31 -12 -4 -21 -2 -21 4 0 6 5 11 11 11 7 0 9 9 6 21 -4 14 7 34 39 71 42 46 44 51 30 67 -20 22 -20 35 -1 51 13 11 15 8 15 -19 0 -17 4 -31 9 -31 19 0 21 20 6 44 -15 23 -15 27 -1 48 l16 22 1 -29 c1 -17 1 -34 0 -38 -1 -4 5 -15 14 -23 13 -14 15 -13 15 9 0 14 3 33 7 43 4 12 3 15 -5 10 -13 -8 -28 37 -17 53 12 20 25 11 25 -17z m-4247 -94 c2 -7 3 -29 1 -48 -3 -28 -2 -30 4 -11 12 37 36 41 29 4 -3 -16 -2 -35 4 -43 7 -13 9 -12 9 2 0 9 5 20 11 24 8 4 9 -3 4 -24 -5 -23 -1 -35 13 -49 28 -26 33 -54 17 -83 -14 -23 -14 -22 -8 25 7 57 -4 56 -17 -1 -7 -30 -5 -42 11 -62 10 -14 19 -38 19 -53 0 -22 5 -29 20 -29 11 0 20 -6 20 -13 0 -7 12 -20 28 -30 27 -18 27 -18 2 -12 -46 13 -100 56 -100 81 0 13 -4 24 -10 24 -5 0 -21 17 -35 38 -24 36 -24 42 -14 96 6 32 8 61 5 64 -3 3 -7 0 -7 -6 -1 -7 -3 -16 -4 -22 -1 -5 -3 -19 -4 -30 0 -11 -5 -20 -11 -20 -6 0 -10 38 -10 95 0 84 10 119 23 83z m4197 -515 c0 -38 3 -44 16 -39 9 4 37 11 63 18 25 6 54 15 64 20 10 5 37 11 60 14 41 5 41 4 -28 -29 -39 -19 -94 -40 -123 -47 -39 -10 -52 -18 -52 -32 0 -10 -4 -18 -10 -18 -5 0 -7 -7 -4 -15 4 -10 0 -15 -11 -15 -10 0 -13 5 -9 12 5 8 2 9 -10 5 -10 -4 -19 -7 -22 -7 -2 0 -1 -7 2 -15 4 -9 0 -15 -9 -15 -8 0 -17 6 -20 13 -3 9 -8 9 -17 1 -9 -9 -9 -17 1 -35 11 -20 14 -21 17 -6 2 9 12 17 23 17 17 0 20 -6 17 -37 -4 -43 -24 -54 -37 -21 -10 23 -10 23 -10 -4 -1 -18 -6 -28 -16 -28 -10 0 -15 10 -15 28 0 36 -10 72 -21 72 -4 0 -6 -13 -4 -30 3 -25 0 -30 -17 -30 -15 0 -19 5 -15 20 3 13 0 20 -8 20 -19 0 -13 57 11 100 17 32 19 33 22 13 4 -28 22 -31 22 -4 0 25 10 51 20 51 4 0 11 -12 15 -27 8 -34 24 -13 17 24 -3 15 1 28 9 33 21 13 29 2 22 -30 -6 -34 3 -39 23 -13 8 12 9 22 3 29 -11 14 9 66 22 58 5 -3 9 -26 9 -51z m-834 -476 c9 3 14 -1 14 -13 0 -9 -3 -14 -7 -11 -3 4 -12 -5 -20 -20 -23 -45 -5 -39 46 15 27 29 54 52 61 52 7 0 -1 -12 -17 -27 -16 -16 -42 -47 -57 -70 -15 -23 -34 -44 -42 -47 -20 -8 -17 -25 9 -51 28 -29 67 -75 67 -81 0 -3 30 -34 68 -69 72 -69 108 -90 48 -28 -20 21 -36 41 -36 45 0 4 -12 20 -27 36 -48 48 -79 85 -62 76 30 -17 109 -92 109 -103 0 -7 4 -10 9 -7 5 4 21 -7 34 -24 14 -16 32 -30 39 -30 11 0 64 58 152 165 13 17 28 27 32 23 4 -4 -5 -20 -20 -35 -16 -15 -34 -39 -41 -54 -8 -14 -34 -42 -59 -63 -25 -21 -46 -44 -46 -53 0 -13 3 -13 15 -3 12 10 15 10 15 -4 0 -19 7 -20 25 -3 7 6 21 19 31 27 11 9 30 29 44 45 14 17 37 38 53 48 21 14 26 23 21 41 -3 13 -1 27 5 30 7 5 11 -6 11 -29 0 -22 4 -34 10 -30 6 4 10 -5 10 -20 0 -14 -4 -24 -9 -21 -5 3 -9 -4 -9 -17 0 -26 -8 -69 -24 -116 -17 -53 -28 -17 -18 59 9 73 1 93 -23 56 -9 -13 -37 -45 -62 -69 -25 -25 -45 -48 -45 -51 0 -17 26 -1 66 39 24 25 44 41 44 35 0 -5 -20 -31 -45 -58 -25 -26 -45 -51 -45 -55 0 -10 -81 -87 -92 -87 -4 0 -8 -7 -8 -15 0 -8 -6 -15 -13 -15 -14 0 -86 -53 -146 -107 -19 -18 -37 -30 -40 -27 -3 2 27 35 67 72 40 37 72 73 72 80 0 7 -4 10 -10 7 -5 -3 -10 1 -10 10 0 12 -6 15 -22 11 -13 -3 -17 -3 -10 0 6 3 12 10 12 15 0 21 -28 6 -75 -39 -46 -44 -85 -70 -85 -56 0 3 30 35 67 70 l68 63 -36 38 c-44 47 -60 64 -129 147 -55 65 -91 83 -104 51 -3 -8 -10 -15 -16 -15 -6 0 -21 -9 -33 -20 -15 -15 -23 -17 -26 -8 -2 6 18 31 45 55 27 23 45 43 41 43 -32 1 -317 -228 -317 -255 0 -14 24 -2 42 20 11 14 25 22 31 18 7 -3 9 -3 5 2 -8 8 -7 9 79 83 51 43 62 49 60 31 -1 -12 -19 -34 -44 -52 -24 -17 -43 -34 -43 -39 0 -4 -7 -8 -15 -8 -8 0 -15 -4 -15 -9 0 -6 -17 -26 -37 -46 l-38 -36 23 -18 c12 -11 22 -22 22 -26 0 -4 9 -20 20 -35 16 -23 17 -29 5 -33 -8 -4 -16 2 -20 14 -4 10 -12 19 -20 19 -8 0 -16 9 -20 19 -7 22 -33 46 -41 38 -6 -6 33 -66 51 -79 5 -4 6 -10 2 -14 -4 -4 1 -13 11 -20 9 -7 14 -15 10 -19 -6 -6 -47 34 -84 81 -13 17 -15 17 -26 3 -7 -9 -19 -18 -27 -20 -10 -4 -7 -12 11 -34 61 -74 55 -102 -9 -39 -27 27 -42 35 -60 31 -22 -4 -24 -2 -19 19 5 19 2 24 -13 24 -14 0 -19 5 -15 15 4 8 -1 17 -10 21 -9 3 -16 15 -16 25 0 10 -7 19 -15 19 -13 0 -19 12 -16 32 0 4 -8 22 -19 40 -11 18 -20 42 -20 52 0 20 0 20 15 0 8 -10 15 -27 15 -37 0 -11 4 -15 12 -11 7 4 8 3 4 -4 -5 -8 0 -12 13 -12 27 0 27 12 0 36 -27 24 -83 139 -76 156 4 9 6 8 6 -3 1 -9 17 -34 36 -55 38 -41 47 -39 16 4 -21 30 -53 102 -45 102 10 0 29 -24 79 -102 28 -42 56 -77 63 -78 18 0 17 3 -42 80 -59 79 -109 173 -104 196 2 9 21 -15 42 -53 52 -89 128 -191 144 -192 7 -1 27 14 45 32 64 63 150 128 164 123 7 -3 13 0 13 6 0 15 48 58 66 58 29 0 26 29 -8 59 -27 25 -30 30 -14 31 11 0 30 -9 42 -21 l22 -21 33 24 c18 12 42 31 53 41 24 21 52 22 64 2 7 -13 12 -12 38 10 22 19 30 22 32 11 2 -8 10 -12 18 -9z m-2897 -681 c7 -8 26 -18 42 -21 17 -4 33 -13 35 -20 3 -7 12 -16 20 -19 9 -3 12 -1 9 4 -9 15 22 12 37 -3 7 -8 18 -16 24 -18 36 -13 184 -147 184 -166 0 -7 6 -13 14 -13 8 0 31 -23 51 -51 29 -39 38 -61 40 -96 1 -37 6 -49 23 -56 11 -5 24 -22 27 -38 4 -19 16 -31 36 -38 16 -5 29 -13 29 -17 0 -4 -15 -20 -32 -35 -18 -15 -30 -30 -26 -34 4 -5 14 -2 22 4 8 7 17 8 20 3 3 -5 33 -15 66 -23 43 -9 56 -15 43 -20 -15 -7 -15 -8 5 -8 12 -1 22 -6 22 -11 0 -13 -52 -1 -62 13 -4 7 -16 6 -35 -3 -15 -8 -31 -16 -35 -18 -5 -2 -8 6 -8 17 0 19 -6 21 -50 21 -39 0 -52 -4 -57 -17 -4 -10 -11 -21 -17 -25 -9 -6 51 -13 77 -9 15 2 6 -30 -10 -37 -12 -4 -18 -18 -18 -37 0 -25 -4 -30 -25 -31 -39 -1 -51 7 -45 27 5 15 1 19 -15 19 -16 0 -19 -5 -15 -22 3 -13 1 -30 -5 -38 -8 -13 -14 -13 -44 4 -34 18 -36 18 -63 0 -15 -10 -30 -19 -33 -19 -3 0 -11 -4 -17 -8 -9 -6 -13 -2 -13 12 0 12 -5 21 -11 21 -5 0 -8 4 -5 9 3 5 -10 11 -29 13 -19 2 -36 1 -37 -3 -2 -4 -19 -9 -38 -11 -29 -3 -35 0 -40 22 -6 26 -11 28 -48 15 -19 -6 -22 -12 -17 -36 4 -18 2 -29 -4 -29 -6 0 -11 5 -11 10 0 6 -7 10 -15 10 -9 0 -18 7 -21 15 -4 8 -12 15 -20 15 -7 0 -17 6 -21 13 -4 6 -15 17 -24 22 -62 38 -139 96 -170 127 -19 20 -55 44 -80 53 -93 35 -92 34 -86 92 4 36 15 68 37 99 27 40 30 50 21 76 -6 16 -7 36 -4 46 9 23 44 73 66 93 9 9 17 23 17 32 0 9 11 24 25 35 30 24 93 20 141 -9 45 -27 54 -24 54 17 0 19 5 44 11 55 19 36 87 51 108 25z m2583 -99 c23 -21 29 -23 39 -11 6 8 16 14 21 14 5 0 18 10 27 22 19 22 41 18 41 -8 0 -9 7 -14 17 -12 10 2 18 -1 19 -7 2 -23 17 -45 30 -45 8 0 14 -3 14 -8 0 -12 -61 -62 -75 -62 -8 0 -16 -4 -19 -9 -7 -11 -56 10 -56 23 0 5 -7 3 -15 -4 -12 -10 -19 -10 -27 -2 -7 7 -20 12 -30 12 -22 0 -24 26 -3 34 21 8 19 16 -15 55 -34 38 -44 77 -12 48 9 -8 29 -27 44 -40z m758 -74 c1 -10 5 -75 9 -145 5 -70 7 -137 4 -148 -7 -27 -29 -25 -57 3 -20 20 -23 32 -20 73 10 113 63 290 64 217z m-2550 -219 c70 -18 67 -19 62 16 -2 17 0 30 6 30 14 0 23 -28 16 -55 -4 -18 0 -24 23 -31 15 -4 33 -8 39 -9 6 0 18 -5 25 -12 8 -6 26 -14 42 -18 15 -4 27 -11 27 -16 0 -5 9 -9 20 -9 11 0 28 -4 38 -9 29 -14 83 -31 170 -53 75 -19 83 -24 78 -42 -9 -37 8 -89 29 -92 11 -2 21 -8 23 -13 10 -29 31 -6 43 48 13 61 34 100 46 88 7 -8 -24 -105 -38 -121 -17 -18 -10 -46 11 -46 11 0 20 -5 20 -11 0 -6 10 -19 22 -28 12 -10 18 -23 14 -29 -11 -18 -33 -14 -41 6 -6 16 -7 16 -16 0 -8 -14 -14 -14 -40 -5 -26 10 -30 16 -27 39 3 18 0 28 -8 28 -8 0 -11 -6 -8 -14 3 -8 1 -17 -5 -21 -6 -3 -14 1 -17 9 -3 9 -10 14 -14 11 -4 -3 -13 2 -19 9 -13 16 2 32 19 21 6 -3 10 -1 10 4 0 6 -7 11 -15 11 -8 0 -15 4 -15 9 0 5 -18 11 -39 15 -50 8 -202 64 -221 82 -12 12 -12 14 4 14 10 0 30 -6 44 -14 40 -21 148 -49 163 -43 8 3 5 6 -8 6 -12 1 -34 6 -50 13 -15 6 -68 26 -118 43 -49 18 -98 36 -107 40 -11 4 -18 3 -18 -3 0 -6 13 -13 29 -17 16 -3 32 -13 35 -22 5 -12 2 -14 -16 -8 -32 9 -76 16 -60 9 6 -3 12 -12 12 -19 0 -8 7 -11 19 -8 20 5 38 -13 26 -25 -4 -4 -10 -2 -12 5 -2 7 -11 9 -19 6 -15 -5 -47 5 -119 37 -22 10 -47 21 -55 24 -8 3 -23 10 -32 16 -34 19 -53 30 -91 51 -56 29 -38 35 20 6 60 -31 93 -41 93 -30 0 5 -19 18 -42 28 -52 22 -120 66 -114 72 3 3 25 -5 50 -18 25 -12 49 -20 52 -16 3 3 -14 15 -38 26 -42 19 -81 51 -62 51 5 0 38 -14 72 -31 35 -17 68 -28 75 -26 7 2 -11 15 -40 29 -72 36 -123 68 -123 79 0 5 26 -5 58 -22 31 -17 82 -37 112 -45z m2335 -224 c-18 -8 -18 -9 -2 -9 24 -1 11 -21 -13 -21 -10 0 -22 -5 -26 -11 -11 -19 48 0 63 19 12 16 14 16 24 0 5 -10 16 -18 24 -18 7 0 16 -6 18 -12 3 -8 6 -5 6 5 1 10 5 16 9 13 15 -9 0 -70 -23 -96 -29 -33 -55 -72 -55 -84 0 -5 17 -6 37 -3 38 7 73 -12 73 -39 0 -7 13 -23 29 -36 15 -13 36 -36 45 -50 17 -25 16 -26 -25 -62 -48 -41 -46 -40 -153 -24 -63 10 -81 9 -84 0 -3 -10 -7 -10 -20 0 -10 9 -50 13 -117 14 -57 1 -107 4 -111 6 -5 3 -25 11 -45 17 -26 8 -35 17 -34 31 2 31 21 46 38 31 12 -9 16 -7 20 11 4 13 2 27 -3 32 -18 18 -11 39 10 33 15 -4 19 0 17 17 -2 17 3 20 21 18 19 -2 22 2 17 17 -4 13 0 20 13 23 18 5 62 76 62 101 1 15 40 61 65 74 10 6 45 11 79 11 43 1 55 -2 41 -8z m-1470 -53 c-1 -35 23 -35 27 0 5 40 28 41 29 1 1 -27 3 -29 6 -8 5 24 19 40 36 40 4 0 7 -16 7 -35 0 -19 5 -35 10 -35 6 0 8 10 5 23 -4 15 -1 28 9 36 17 14 18 12 20 -44 1 -15 9 -21 34 -23 40 -4 42 -18 2 -25 -16 -4 -30 -12 -30 -18 0 -7 10 -9 25 -7 14 3 25 2 25 -3 0 -4 -10 -9 -22 -11 -13 -2 -23 -10 -23 -18 0 -8 -4 -20 -8 -27 -4 -6 -4 -18 -1 -27 3 -9 2 -17 -2 -17 -82 -13 -174 -3 -174 18 0 12 6 14 28 8 17 -4 24 -3 17 3 -5 6 -19 12 -30 14 -21 3 -23 20 -17 151 2 44 27 47 27 4z m-2484 1 c5 -9 24 -20 42 -23 46 -10 59 -23 46 -46 -5 -10 -17 -19 -25 -19 -8 0 -13 -4 -9 -10 3 -5 13 -6 21 -3 17 6 66 -16 59 -27 -9 -14 25 -32 50 -28 14 3 25 1 25 -4 0 -5 13 -7 31 -3 28 6 30 5 24 -14 -7 -23 4 -28 23 -9 10 10 15 10 21 -1 5 -8 7 -20 4 -28 -3 -7 0 -13 6 -13 6 0 11 9 11 20 0 11 6 20 14 20 8 0 18 -9 21 -20 4 -12 16 -20 28 -21 12 0 16 -3 10 -6 -7 -2 -13 -9 -13 -14 0 -6 5 -7 11 -4 16 11 39 -27 28 -47 -6 -10 -5 -19 1 -23 6 -3 13 1 16 9 11 29 23 17 30 -30 5 -37 9 -43 16 -30 6 10 8 26 5 37 -3 10 -1 22 4 25 10 6 14 -30 10 -88 -1 -21 2 -38 7 -38 12 0 22 24 22 51 0 33 14 21 40 -35 13 -30 28 -52 33 -49 4 3 19 -7 33 -22 27 -30 30 -40 9 -32 -8 4 -17 2 -20 -3 -4 -6 -1 -10 4 -10 7 0 7 -7 -1 -20 -10 -16 -10 -22 -1 -28 19 -12 1 -27 -35 -28 -19 -1 -29 2 -22 6 19 12 -14 30 -49 27 -17 -2 -34 -7 -38 -10 -9 -10 -43 -9 -43 1 0 4 9 15 20 25 11 9 20 21 20 27 0 16 -27 12 -34 -5 -3 -8 -18 -15 -34 -15 -15 0 -34 -6 -41 -12 -14 -13 -14 -9 4 35 4 10 -2 13 -25 9 -18 -2 -30 0 -30 7 0 6 9 11 20 11 11 0 20 5 20 11 0 11 -9 10 -70 -6 l-25 -6 28 21 c27 21 35 40 18 40 -4 0 -25 -11 -45 -25 -38 -26 -56 -25 -56 1 0 14 -2 13 -16 0 -19 -20 -34 -20 -60 -2 -14 10 -31 12 -64 6 -46 -8 -82 1 -112 31 -9 9 -14 20 -11 23 4 3 -3 6 -15 6 -11 0 -23 -6 -26 -12 -3 -7 -3 -2 0 11 6 21 4 23 -20 17 -15 -4 -26 -2 -26 4 0 5 4 10 9 10 4 0 6 12 3 26 -3 19 -7 22 -13 13 -6 -11 -11 -11 -20 -2 -9 9 -9 16 2 29 11 13 11 18 2 21 -21 7 -15 23 10 23 l22 1 -25 20 c-24 20 -24 21 -5 35 23 17 16 18 -22 2 -15 -6 -37 -10 -48 -9 -12 1 -26 -9 -37 -26 l-17 -28 -7 33 c-7 37 -24 43 -25 10 -1 -22 -1 -22 -8 2 -5 18 -3 27 8 32 13 5 13 7 1 7 -9 1 -11 4 -4 11 16 16 46 0 41 -21 -6 -21 -5 -21 17 -13 14 5 13 9 -4 34 -17 25 -18 29 -4 34 21 8 54 8 54 0 0 -4 -7 -12 -16 -18 -9 -7 -12 -18 -8 -29 11 -29 23 -19 30 22 4 25 13 42 23 44 9 2 1 2 -16 0 -22 -3 -33 0 -34 9 0 10 -2 10 -6 1 -4 -13 -33 -19 -33 -8 0 3 7 17 16 31 22 33 8 45 -17 14 l-20 -25 12 28 c7 16 20 27 31 27 11 0 16 5 13 10 -3 6 3 10 14 10 19 0 20 -1 3 -30 -14 -26 -15 -32 -3 -39 22 -14 44 -2 30 15 -9 11 -8 14 1 14 7 0 10 8 7 19 -4 17 0 19 32 14 24 -3 32 -2 22 5 -10 7 -10 11 -1 17 9 6 9 10 -1 17 -11 8 -11 9 1 5 8 -2 14 -10 12 -17 -2 -8 3 -10 13 -6 9 3 30 6 47 6 25 0 28 2 19 14 -10 12 -9 14 5 12 9 -1 20 -10 25 -18z m3194 -8 c4 -6 2 -17 -4 -24 -6 -7 -8 -16 -5 -19 3 -3 2 -12 -2 -19 -5 -7 -9 -29 -9 -48 0 -33 -2 -35 -30 -33 -16 2 -72 4 -122 5 -51 1 -93 6 -93 10 0 4 16 8 35 8 19 0 35 5 35 10 0 6 -16 10 -35 10 -19 0 -35 5 -35 10 0 6 14 10 30 10 19 0 30 5 30 14 0 8 3 21 6 30 5 14 -4 16 -62 16 -81 0 -77 17 6 22 142 9 249 8 255 -2z m-1815 -94 c0 -7 12 -26 26 -41 23 -25 30 -27 77 -22 42 5 56 2 75 -13 16 -13 22 -26 17 -39 -10 -32 10 -32 22 -1 10 27 9 32 -15 49 -18 13 -24 23 -17 30 7 7 26 -1 58 -25 45 -33 64 -63 32 -50 -15 5 -19 -12 -18 -69 0 -11 -5 -23 -11 -27 -17 -11 -36 -9 -36 4 0 6 -12 27 -26 45 -24 31 -28 33 -42 20 -13 -14 -12 -19 12 -47 14 -17 26 -36 26 -41 0 -5 6 -9 14 -9 18 0 25 -29 19 -84 -3 -27 -1 -51 6 -59 8 -11 7 -26 -3 -61 -14 -46 -14 -48 7 -56 20 -7 20 -9 4 -15 -9 -4 -24 -2 -31 4 -11 9 -18 6 -34 -16 -10 -15 -21 -34 -23 -41 -3 -7 -31 -24 -64 -38 -114 -47 -215 -19 -285 79 -17 23 -37 49 -45 59 -7 9 -12 18 -9 20 2 3 -3 38 -10 79 -8 40 -11 76 -7 79 4 3 13 25 20 50 7 27 29 64 56 94 38 42 47 47 60 36 13 -11 16 -11 13 0 -2 7 11 17 27 22 17 5 39 13 50 18 11 5 27 11 35 13 8 3 3 6 -12 6 -22 1 -28 6 -28 24 0 13 3 27 7 30 12 13 53 7 53 -7z m450 -107 c0 -16 5 -29 11 -29 6 0 9 9 6 20 -6 23 27 38 47 21 7 -6 28 -12 47 -15 44 -6 69 -16 69 -27 0 -6 7 -6 18 0 21 11 62 4 62 -10 0 -5 18 -6 40 -3 32 5 40 4 40 -9 0 -9 10 -17 23 -19 13 -2 21 -9 20 -18 -4 -22 65 -50 110 -46 24 2 37 -1 37 -9 0 -9 29 -12 101 -13 108 -2 121 -5 112 -27 -3 -9 1 -15 11 -15 9 0 16 6 16 14 0 8 4 18 10 21 6 3 7 -1 4 -9 -5 -13 2 -16 31 -16 24 0 43 -6 51 -17 12 -16 15 -16 24 -3 6 10 10 11 10 3 0 -7 7 -13 15 -13 8 0 15 -5 15 -11 0 -6 7 -9 15 -5 10 3 15 -1 16 -12 0 -13 3 -12 11 6 13 26 33 30 24 5 -4 -10 7 -2 23 17 17 19 30 29 31 23 0 -7 6 -13 14 -13 8 0 16 -6 19 -14 4 -9 14 -12 27 -9 16 4 19 2 14 -11 -3 -9 -1 -16 5 -16 6 0 19 -8 29 -18 16 -16 16 -20 3 -32 -11 -11 -11 -15 -2 -18 8 -3 17 2 22 9 7 11 9 10 9 -3 0 -39 18 -15 24 32 4 28 10 50 14 50 4 0 16 -14 26 -30 9 -17 21 -28 26 -25 5 3 13 -2 18 -11 6 -11 11 -13 16 -5 5 8 12 7 23 -4 9 -10 23 -13 35 -9 11 3 26 7 32 8 6 1 17 5 24 10 16 10 29 -1 34 -28 1 -11 9 -21 17 -24 10 -3 12 1 8 17 -3 11 -1 21 4 21 5 0 9 -5 9 -11 0 -6 6 -16 13 -24 12 -11 17 -8 31 15 20 36 50 30 43 -7 -3 -18 -1 -23 10 -18 12 4 14 -1 11 -20 -3 -14 1 -30 9 -36 22 -19 27 -3 13 46 -11 38 -11 48 0 58 10 10 12 8 8 -9 -6 -22 27 -53 34 -33 6 17 38 -2 38 -22 0 -10 5 -19 10 -19 6 0 10 4 10 9 0 5 14 14 31 20 27 9 32 8 36 -9 3 -11 9 -18 13 -15 4 3 10 -2 14 -10 3 -8 12 -12 20 -9 8 3 16 -2 19 -13 4 -13 6 -11 5 7 0 14 0 31 1 38 1 15 31 16 31 1 0 -7 8 -6 22 3 20 14 24 13 39 -6 21 -25 38 -13 43 30 5 41 5 41 21 20 13 -17 12 -21 -3 -33 -15 -13 -14 -14 12 -8 26 5 28 4 17 -9 -11 -13 -11 -16 3 -16 10 0 16 9 16 25 0 29 16 33 25 6 8 -26 55 -16 55 11 0 14 5 18 15 14 10 -3 15 1 15 12 0 14 2 14 9 3 8 -12 12 -12 25 -2 13 11 16 11 16 -2 0 -8 9 -17 21 -20 12 -3 18 -10 15 -15 -3 -6 5 -17 18 -26 20 -12 25 -13 29 -2 3 8 0 19 -6 26 -9 10 -9 11 1 6 6 -4 12 -2 12 3 0 20 18 11 25 -11 6 -20 8 -21 12 -5 4 18 6 17 20 -3 8 -11 20 -19 26 -17 14 4 36 -21 37 -41 0 -7 7 -20 15 -28 13 -14 16 -13 24 9 19 49 49 46 53 -6 1 -15 6 -27 10 -27 4 0 8 -10 8 -22 0 -29 13 -14 15 17 0 14 -5 25 -12 25 -7 0 -13 5 -13 10 0 6 9 10 20 10 11 0 20 5 20 10 0 6 -7 10 -15 10 -19 0 -19 14 -1 29 15 13 31 -1 37 -33 5 -27 21 -30 46 -7 12 11 33 23 47 27 14 3 23 11 20 16 -4 6 -1 9 7 6 8 -3 14 -13 14 -24 0 -12 8 -20 22 -22 27 -4 34 -23 23 -63 -12 -41 -8 -46 40 -54 22 -4 37 -11 34 -17 -3 -5 -12 -7 -20 -4 -8 3 -14 1 -14 -5 0 -7 -10 -9 -25 -5 -19 5 -23 3 -19 -8 4 -11 12 -13 31 -5 25 9 43 5 43 -10 0 -13 -40 -21 -71 -14 -16 3 -29 11 -29 18 0 6 -12 18 -27 26 -16 8 -32 20 -36 27 -5 7 -12 10 -18 7 -5 -4 -9 3 -9 14 0 12 -4 21 -10 21 -5 0 -7 -21 -4 -49 3 -27 1 -51 -3 -54 -5 -3 -6 -31 -3 -61 l6 -56 -30 1 c-17 0 -40 4 -51 8 -11 5 -30 4 -42 -2 -16 -7 -27 -5 -44 7 -13 9 -33 16 -44 16 -12 0 -26 5 -33 12 -19 19 -26 0 -11 -29 20 -42 22 -50 6 -30 -14 17 -16 17 -31 1 -12 -12 -27 -15 -52 -11 -36 6 -40 -1 -35 -55 1 -10 -2 -18 -8 -18 -6 0 -8 6 -5 13 3 8 -3 20 -12 28 -14 12 -19 10 -38 -13 -25 -31 -76 -48 -76 -26 0 10 -10 14 -32 13 -18 -2 -39 2 -46 8 -10 8 -16 7 -24 -4 -6 -9 -11 -10 -14 -3 -10 25 -33 49 -40 42 -4 -4 -1 -14 6 -23 7 -9 10 -19 6 -22 -4 -4 -12 -1 -17 7 -8 11 -12 12 -16 3 -8 -21 -33 -15 -45 12 -7 15 -19 25 -32 25 -19 -1 -19 -2 -3 -11 40 -23 16 -42 -68 -52 -5 -1 -20 4 -31 11 -15 8 -32 8 -55 2 -25 -7 -37 -6 -49 5 -9 8 -19 12 -23 9 -13 -13 -48 9 -63 42 -20 42 -34 44 -34 5 0 -38 -15 -47 -45 -27 -13 9 -36 16 -50 16 -14 0 -25 6 -25 13 0 18 -47 40 -55 27 -10 -17 -33 -11 -40 10 -3 11 -11 20 -17 20 -5 0 -8 -7 -4 -15 4 -12 -4 -15 -39 -15 -38 0 -48 4 -72 35 -30 37 -53 46 -53 19 0 -9 -7 -14 -17 -13 -24 3 -53 -11 -53 -25 0 -6 -18 -12 -41 -13 -37 -2 -41 0 -54 31 -14 32 -16 33 -65 30 -36 -2 -50 1 -47 9 2 7 -4 20 -13 30 -14 14 -20 15 -26 6 -4 -7 -2 -15 4 -17 7 -2 9 -8 6 -14 -3 -5 -12 0 -20 11 -8 11 -21 18 -29 15 -9 -4 -15 0 -15 10 0 18 -15 22 -25 6 -11 -18 -23 -10 -27 19 -3 23 0 31 15 35 18 5 19 5 0 29 -12 16 -20 21 -25 13 -4 -6 -22 -10 -40 -9 -18 1 -27 0 -20 -3 7 -3 19 -20 28 -37 11 -24 12 -28 1 -14 -8 9 -23 17 -33 16 -11 0 -14 -3 -6 -6 16 -6 6 -23 -15 -23 -9 0 -13 6 -9 15 3 8 1 15 -3 15 -5 0 -7 10 -3 22 3 14 1 19 -6 14 -6 -3 -14 -2 -17 4 -4 6 -16 8 -26 5 -11 -4 -27 -1 -35 6 -13 11 -18 10 -25 -4 -13 -22 -25 -21 -51 3 -12 11 -30 20 -40 20 -10 0 -18 7 -18 16 0 11 -9 15 -32 14 -72 -4 -90 0 -95 20 -6 24 -19 26 -27 4 -5 -12 -10 -13 -19 -6 -7 6 -23 9 -34 6 -13 -4 -28 1 -40 13 -10 10 -26 17 -35 15 -12 -2 -20 7 -26 30 l-9 33 -10 -35 c-6 -23 -6 -37 0 -41 5 -4 0 -12 -11 -18 -18 -10 -21 -9 -16 4 4 8 1 15 -4 15 -7 0 -5 11 4 28 7 15 14 31 14 36 0 4 11 17 25 28 14 11 25 25 25 32 0 17 -83 42 -88 27 -4 -13 -52 37 -52 55 0 8 5 13 12 12 10 -3 46 53 48 73 0 11 -50 28 -66 22 -13 -5 -15 1 -13 30 2 20 0 39 -4 43 -4 4 -2 13 4 20 9 10 7 15 -5 20 -21 8 -20 22 2 26 29 7 42 -3 42 -33z m-1030 -359 c0 -12 10 -24 23 -30 12 -5 16 -9 10 -9 -7 -1 -13 -6 -13 -12 0 -7 10 -9 25 -7 17 4 25 1 25 -9 0 -10 -9 -13 -27 -11 -22 2 -27 -1 -25 -14 3 -20 -23 -25 -33 -8 -5 8 -11 7 -21 -1 -9 -7 -32 -10 -60 -6 -47 5 -68 16 -46 24 8 3 11 15 6 38 -5 30 -4 33 24 37 22 3 29 1 25 -9 -7 -18 3 -16 27 4 14 13 16 19 7 25 -7 5 1 8 21 8 26 0 32 -4 32 -20z m1310 -832 c0 -7 5 -6 14 1 14 12 28 9 84 -16 33 -15 39 -41 8 -35 -23 4 -20 -15 4 -21 23 -6 27 -37 5 -37 -8 0 -15 -4 -15 -10 0 -5 7 -10 15 -10 8 0 15 -5 15 -11 0 -5 -4 -8 -8 -5 -5 3 -22 1 -38 -4 -25 -7 -26 -8 -6 -9 22 -1 41 -26 28 -38 -7 -8 -106 15 -122 29 -7 5 -10 18 -7 28 4 16 0 20 -20 20 -14 0 -28 4 -31 9 -3 5 -20 11 -38 14 -18 3 -49 10 -68 16 -30 9 -25 10 34 5 38 -2 79 -7 92 -10 15 -4 24 -2 24 5 0 6 -13 11 -29 11 -16 0 -34 6 -40 14 -19 22 6 30 34 12 27 -18 40 -7 30 24 -3 11 -4 24 0 29 7 12 35 3 35 -11z m-906 -63 c3 -8 0 -15 -6 -15 -7 0 -6 -5 2 -15 14 -17 35 -21 25 -5 -12 20 14 10 42 -16 15 -14 22 -23 16 -19 -21 10 -15 -4 12 -29 30 -28 46 -116 20 -116 -8 0 -15 5 -15 10 0 6 -4 10 -9 10 -4 0 -12 -32 -15 -71 -9 -86 -13 -99 -35 -98 -9 0 -11 3 -5 5 6 3 9 15 7 27 -3 13 -1 46 4 73 5 28 7 59 3 70 -4 12 -10 -11 -14 -58 -4 -43 -12 -80 -17 -83 -14 -9 -22 43 -16 111 4 38 2 64 -3 64 -6 0 -10 -17 -10 -39 0 -21 -7 -54 -15 -72 -10 -21 -15 -27 -14 -14 1 11 1 51 0 88 -1 55 -4 69 -18 73 -10 3 -25 10 -33 15 -8 5 -23 12 -32 15 -10 4 -18 11 -18 16 0 5 -4 7 -9 4 -4 -3 -17 1 -27 10 -18 14 -18 15 3 9 13 -4 35 -9 50 -11 16 -3 43 -14 61 -24 l32 -19 1 32 c1 18 1 38 0 45 -1 6 3 12 10 12 6 0 9 7 5 15 -3 8 -1 15 3 15 5 0 11 -7 15 -15z m1361 -77 c6 0 36 3 68 6 53 7 57 6 57 -13 0 -12 -5 -21 -11 -21 -6 0 -3 -7 6 -16 9 -9 13 -24 10 -35 -5 -16 -1 -19 30 -19 20 0 43 -7 51 -15 14 -13 12 -15 -13 -16 -15 -1 -36 -2 -45 -3 -26 -1 -23 -20 4 -27 17 -4 6 -8 -37 -15 -33 -5 -67 -8 -75 -7 -8 1 -32 4 -52 7 -20 2 -41 7 -47 10 -14 9 -2 109 14 120 11 8 10 12 -2 21 -20 15 -7 39 16 29 9 -3 21 -6 26 -6z" fill="#03a9f4"/>
<path d="M6646 4094 c-4 -9 -4 -19 -1 -22 3 -3 5 1 5 9 0 7 12 0 28 -18 47 -50 36 -71 -13 -23 -46 45 -55 49 -55 20 0 -11 7 -20 15 -20 8 0 20 -10 26 -22 17 -31 26 -42 102 -119 38 -37 66 -73 62 -79 -15 -24 21 -7 47 23 25 27 27 33 12 36 -9 1 -27 15 -39 30 -13 14 -35 40 -49 56 -14 17 -26 38 -26 48 0 9 -6 17 -14 17 -8 0 -30 18 -49 40 -38 45 -42 47 -51 24z" fill="#03a9f4"/>
<path d="M6260 6327 c0 -8 -9 -22 -19 -31 -10 -9 -33 -46 -50 -81 -29 -58 -32 -73 -30 -147 2 -97 -15 -147 -58 -167 -38 -18 -173 -27 -182 -13 -5 9 -15 9 -38 0 -34 -13 -78 -3 -53 12 9 5 19 5 28 -2 10 -9 14 -6 18 10 4 11 12 23 20 26 8 3 14 19 14 36 0 30 -14 41 -23 18 -4 -10 -8 -10 -15 1 -20 29 -68 4 -154 -80 -45 -46 -75 -80 -65 -76 32 12 17 -8 -20 -28 -41 -22 -103 -83 -103 -101 0 -7 -7 -15 -16 -18 -9 -4 -14 -13 -10 -21 3 -8 -4 -31 -16 -51 -15 -26 -18 -38 -9 -47 8 -8 11 -7 11 5 0 9 18 35 40 58 50 52 51 43 4 -23 -28 -38 -34 -55 -29 -76 3 -14 8 -39 11 -56 5 -27 4 -28 -7 -10 -7 11 -19 26 -27 34 -13 13 -13 11 -7 -19 6 -28 5 -32 -9 -27 -21 8 -20 2 1 -23 22 -26 36 -26 28 0 -5 15 -3 18 10 14 12 -5 14 -14 10 -34 -4 -18 -1 -31 9 -39 22 -18 39 -5 26 19 -9 16 -8 18 6 13 14 -5 15 -3 5 15 -23 42 25 36 76 -11 13 -11 25 -19 27 -16 5 5 19 97 18 119 -1 31 20 165 30 189 10 25 11 25 18 6 8 -19 9 -19 9 3 1 27 10 31 76 34 l50 3 -1 -47 c-1 -54 1 -55 69 -34 25 7 48 12 50 10 7 -7 217 -9 217 -2 0 3 -32 10 -72 15 -44 5 -73 13 -76 21 -3 10 13 13 72 11 42 -1 79 1 83 4 3 4 -10 7 -29 7 -51 0 -99 11 -92 21 3 5 34 9 70 9 81 0 83 15 4 24 -79 9 -78 28 1 25 66 -3 78 6 79 51 0 14 7 34 16 45 14 19 14 17 8 -25 -4 -25 -7 -49 -8 -54 0 -5 4 -10 10 -13 7 -2 14 16 18 49 4 29 11 59 15 67 14 23 23 -22 15 -75 -5 -34 -4 -45 5 -40 6 4 11 24 11 45 0 24 6 44 17 52 15 13 16 9 10 -43 -7 -70 8 -78 18 -10 10 70 25 125 33 117 4 -4 7 -45 7 -92 l0 -86 50 -13 c28 -8 86 -16 130 -19 44 -3 101 -7 126 -10 l46 -4 11 87 c6 48 14 119 17 157 3 39 8 82 11 98 5 26 4 27 -38 28 -24 0 -78 6 -121 13 -86 14 -86 14 -101 -46 -8 -35 -26 -36 -26 -2 0 27 -52 98 -109 149 -19 16 -47 42 -62 58 -33 33 -39 34 -39 2 0 -15 -6 -25 -15 -25 -7 0 -19 -8 -24 -17 -9 -15 -10 -12 -11 15 0 20 6 35 15 38 8 4 15 12 15 20 0 8 -7 14 -15 14 -8 0 -15 -6 -15 -13z" fill="#03a9f4"/>
<path d="M3260 6162 c0 -12 7 -27 15 -36 24 -24 17 -28 -15 -10 -16 10 -31 25 -33 33 -5 22 -39 -54 -70 -156 l-25 -82 21 -14 c17 -12 19 -18 10 -28 -10 -10 -14 -9 -19 4 -7 20 -24 23 -24 5 0 -16 238 -248 254 -248 3 0 6 14 6 31 0 24 4 30 15 25 10 -4 15 1 15 15 0 11 -5 17 -10 14 -20 -13 -23 29 -5 109 9 44 24 100 32 124 l14 43 -82 92 c-46 51 -86 94 -91 95 -4 2 -8 -5 -8 -16z" fill="#03a9f4"/>
<path d="M6999 6135 c-1 0 -9 -79 -18 -176 l-16 -176 60 -12 c33 -7 114 -11 181 -9 l121 2 12 106 c6 58 14 142 17 187 l6 82 -181 -2 c-100 -1 -182 -2 -182 -2z" fill="#03a9f4"/>
<path d="M4400 5935 c0 -5 -7 -75 -15 -155 -20 -206 -21 -198 18 -205 17 -3 77 -11 132 -16 55 -6 119 -13 143 -16 l42 -5 2 88 c1 49 2 136 2 194 l1 105 -45 8 c-69 12 -280 14 -280 2z" fill="#03a9f4"/>
<path d="M8022 5858 c-56 -32 -79 -62 -64 -81 10 -13 27 -79 37 -141 5 -32 4 -38 -9 -33 -10 4 -16 1 -16 -8 0 -8 6 -12 14 -9 19 7 38 -30 35 -69 -2 -18 1 -45 5 -60 9 -31 16 -30 93 4 23 11 48 19 56 19 31 0 39 26 27 87 -14 69 -38 160 -50 188 -17 41 -35 90 -36 100 0 6 -2 16 -2 23 -3 20 -33 13 -90 -20z" fill="#03a9f4"/>
<path d="M2885 5728 c-43 -149 -44 -151 -28 -182 14 -26 13 -28 -1 -23 -19 8 -21 -13 -3 -35 20 -25 87 -71 87 -60 0 6 -11 24 -25 40 -30 36 -31 42 -5 35 11 -3 20 -12 20 -21 0 -10 3 -12 9 -6 14 15 46 198 42 244 -1 13 -2 13 -11 0 -8 -12 -10 -10 -10 8 0 21 -33 61 -51 62 -4 0 -14 -28 -24 -62z" fill="#03a9f4"/>
<path d="M5894 5637 c-51 -20 -59 -34 -56 -97 2 -31 -4 -99 -13 -151 -9 -52 -19 -108 -22 -124 l-5 -31 69 2 c37 1 115 -2 173 -6 58 -4 106 -7 107 -6 3 3 6 27 33 240 11 88 19 160 17 161 -6 6 -189 25 -228 24 -24 0 -58 -6 -75 -12z" fill="#03a9f4"/>
<path d="M6372 5538 c-24 -173 -35 -309 -26 -318 10 -10 360 -29 374 -20 5 3 13 70 19 150 6 80 13 164 16 186 l4 42 -117 6 c-108 7 -216 20 -246 32 -8 3 -15 -20 -24 -78z" fill="#03a9f4"/>
<path d="M6946 5578 c-3 -13 -12 -88 -21 -168 -8 -80 -18 -160 -21 -177 -5 -31 -3 -33 28 -34 67 -3 104 -6 158 -13 30 -4 81 -9 112 -11 65 -5 64 -6 72 85 3 30 8 75 10 100 3 25 8 72 11 105 3 33 8 72 11 86 l5 27 -153 6 c-84 4 -165 9 -180 12 -23 5 -28 1 -32 -18z" fill="#03a9f4"/>
<path d="M3851 5432 c-5 -31 -16 -115 -22 -186 -12 -118 -11 -130 4 -141 15 -11 246 -70 302 -77 19 -3 21 6 32 137 6 77 12 168 12 203 1 56 -1 62 -19 62 -11 0 -66 11 -123 24 -56 13 -118 26 -138 29 l-37 5 -11 -56z" fill="#03a9f4"/>
<path d="M5281 5430 c-1 -29 2 -40 8 -31 15 23 33 1 29 -38 -2 -20 1 -35 7 -33 5 1 10 8 11 15 0 6 2 20 2 31 2 14 5 16 15 8 9 -8 12 -42 11 -124 -3 -145 -7 -172 -26 -191 -12 -13 -16 -39 -16 -117 -1 -57 3 -100 8 -100 6 0 10 14 10 30 0 31 13 39 27 17 15 -23 112 -99 121 -93 4 2 34 58 66 123 32 65 62 126 67 136 5 9 12 37 15 61 6 39 3 48 -20 71 -14 14 -26 30 -26 35 0 6 -5 10 -11 10 -11 0 -136 98 -158 123 -7 9 -11 28 -9 42 5 25 -5 34 -17 15 -7 -12 -65 -13 -82 -2 -7 4 -16 19 -22 32 -9 22 -10 20 -10 -20z" fill="#03a9f4"/>
<path d="M4346 5258 c-4 -73 -9 -163 -12 -199 l-5 -67 28 -5 c127 -23 336 -57 339 -54 2 2 7 93 10 203 l7 199 -49 12 c-47 12 -138 25 -255 38 l-56 6 -7 -133z" fill="#03a9f4"/>
<path d="M2796 5298 c4 -7 16 -24 28 -37 22 -25 21 -25 -28 -5 -10 4 -16 -5 -21 -28 -3 -18 -18 -71 -32 -117 -27 -88 -26 -104 13 -125 10 -6 25 -19 33 -29 8 -11 21 -17 32 -14 12 3 19 0 19 -9 0 -28 28 -13 33 19 3 17 11 59 17 92 6 33 13 72 16 87 3 14 0 29 -5 33 -6 3 -8 20 -4 38 3 19 2 29 -3 24 -5 -5 -9 -13 -9 -18 0 -5 -4 -9 -10 -9 -5 0 -10 14 -10 31 -1 22 -9 39 -28 55 -30 26 -53 32 -41 12z" fill="#03a9f4"/>
<path d="M4888 5248 c-3 -24 -4 -117 -4 -207 1 -138 3 -164 16 -166 8 -2 56 -18 105 -38 77 -29 108 -40 180 -61 23 -7 28 2 26 45 -1 25 -4 55 -6 65 -2 10 -4 78 -4 150 l-1 131 -85 42 c-73 36 -192 81 -215 81 -4 0 -10 -19 -12 -42z" fill="#03a9f4"/>
<path d="M8117 5267 c-53 -25 -53 -23 -23 -127 21 -71 21 -173 1 -190 -16 -13 -47 -71 -42 -77 2 -2 42 11 88 28 46 17 90 31 97 32 16 1 15 22 -3 74 -8 24 -17 64 -19 90 -21 224 -13 210 -99 170z" fill="#03a9f4"/>
<path d="M5798 5043 c-21 -2 -38 -10 -38 -16 0 -7 -7 -82 -15 -167 -7 -85 -15 -172 -17 -193 l-3 -38 111 -3 c110 -4 159 -16 151 -39 -2 -7 -13 -11 -23 -10 -94 12 -232 14 -238 4 -5 -8 19 -11 86 -12 51 0 102 -2 113 -5 11 -2 32 -5 48 -6 19 -1 27 -6 27 -20 0 -10 -7 -18 -16 -18 -14 0 -14 -3 -4 -16 12 -13 16 -12 37 13 l24 28 -5 -25 c-13 -59 -16 -74 -10 -60 4 8 13 23 21 32 8 9 12 21 9 27 -10 15 15 61 33 61 20 0 51 34 51 55 0 23 -16 18 -28 -10 -7 -14 -20 -29 -29 -32 -10 -4 -24 -15 -31 -25 -16 -22 -42 -24 -42 -3 0 17 38 59 59 66 16 6 50 234 51 335 l0 61 -82 7 c-142 11 -202 14 -240 9z" fill="#03a9f4"/>
<path d="M6310 4999 c0 -13 -9 -105 -19 -204 -11 -99 -16 -184 -12 -188 9 -9 364 -32 384 -24 11 4 17 43 26 164 6 87 14 179 16 204 l5 46 -82 7 c-46 3 -136 9 -200 13 l-118 6 0 -24z" fill="#03a9f4"/>
<path d="M6894 4999 c-6 -10 -34 -316 -34 -371 0 -56 4 -57 95 -33 73 19 176 30 174 19 -2 -5 3 -21 10 -35 9 -19 10 -32 3 -45 -6 -11 -8 -32 -5 -47 7 -38 -14 -35 -33 6 l-14 32 2 -30 c3 -34 16 -57 29 -49 5 3 9 0 9 -6 0 -6 7 -18 15 -26 13 -14 16 -14 22 2 4 10 2 19 -5 22 -7 2 -12 13 -12 23 0 11 4 18 9 15 5 -3 11 8 13 25 3 22 1 29 -9 25 -7 -3 -13 -1 -13 4 0 6 4 10 9 10 11 0 24 35 26 70 2 48 17 105 28 112 8 5 8 8 1 8 -10 0 -1 86 21 218 6 30 4 32 -22 32 -15 0 -44 5 -63 10 -40 11 -250 18 -256 9z" fill="#03a9f4"/>
<path d="M4316 4748 c-3 -29 -11 -118 -17 -198 -6 -79 -12 -147 -15 -151 -9 -14 24 -27 101 -38 44 -6 124 -21 178 -33 53 -12 99 -19 101 -17 5 5 13 119 22 290 l7 125 -84 17 c-46 9 -122 24 -169 32 -47 9 -92 18 -101 20 -14 5 -18 -4 -23 -47z" fill="#03a9f4"/>
<path d="M2650 4761 c0 -11 6 -21 13 -21 7 0 27 -14 45 -30 25 -22 40 -28 57 -24 35 9 47 -21 26 -63 -20 -41 -35 -43 -26 -4 5 23 2 32 -14 40 -11 6 -26 17 -33 23 -8 7 -28 21 -46 30 l-31 17 -16 -32 c-9 -17 -18 -51 -20 -75 -3 -29 -14 -55 -34 -79 -30 -37 -32 -53 -5 -53 8 0 14 -6 14 -14 0 -8 10 -18 23 -22 12 -3 30 -15 40 -25 24 -25 35 -24 49 6 6 14 15 25 19 25 4 0 10 11 13 25 4 14 13 25 21 25 17 0 13 -13 -22 -79 -23 -44 -24 -59 -3 -46 20 12 69 130 84 202 9 39 17 77 18 84 2 7 -1 14 -7 15 -29 5 -55 17 -55 26 0 5 -15 16 -32 24 -18 8 -43 21 -55 30 -22 16 -23 15 -23 -5z" fill="#03a9f4"/>
<path d="M8200 4734 c-30 -7 -74 -18 -98 -24 -23 -5 -51 -10 -62 -10 -15 0 -20 -7 -20 -26 0 -14 -4 -33 -9 -43 -7 -12 -5 -26 4 -45 10 -19 13 -46 9 -88 -3 -34 0 -92 6 -129 l12 -68 53 0 c30 1 58 -2 63 -5 5 -3 15 1 22 9 9 10 9 15 1 15 -15 0 -14 20 2 39 8 9 20 42 27 74 7 31 16 57 20 57 4 0 12 -18 19 -40 6 -21 16 -42 21 -45 14 -9 12 26 -5 125 -11 63 -12 99 -5 144 5 33 6 63 2 67 -4 3 -32 0 -62 -7z" fill="#03a9f4"/>
<path d="M5306 4643 c-3 -27 -6 -63 -6 -80 1 -18 -5 -33 -11 -33 -6 0 -9 -9 -6 -20 3 -11 1 -23 -4 -26 -5 -3 -9 8 -9 25 0 16 -4 33 -10 36 -6 4 -10 -16 -10 -53 0 -87 -12 -182 -22 -182 -5 0 -9 21 -8 48 1 26 1 82 1 125 l-1 78 -46 20 c-56 25 -207 78 -234 82 -11 2 -23 6 -26 10 -10 9 -44 9 -44 0 -1 -45 -20 -304 -26 -351 -6 -54 -4 -62 10 -62 9 0 45 -9 79 -21 34 -12 67 -22 72 -24 6 -1 17 -4 25 -8 8 -3 42 -12 75 -20 33 -8 68 -18 77 -22 14 -5 17 0 20 36 2 24 9 44 16 47 10 3 12 -13 9 -77 -2 -45 0 -81 5 -81 4 0 8 25 8 55 0 30 5 67 12 82 16 37 15 36 28 28 9 -6 9 -10 -1 -16 -11 -6 -11 -11 -2 -20 9 -9 13 -6 18 14 4 14 13 28 21 31 22 9 28 -21 10 -49 -9 -13 -12 -26 -7 -30 11 -6 16 1 25 39 11 44 28 12 20 -36 -4 -29 -2 -39 10 -44 9 -3 25 -21 37 -40 11 -19 27 -34 35 -34 8 0 17 -7 20 -15 4 -8 12 -15 20 -15 8 0 14 -7 14 -15 0 -8 5 -15 10 -15 6 0 10 26 10 57 0 46 3 54 12 45 7 -7 12 -33 11 -57 -1 -25 2 -45 7 -45 14 0 16 22 13 118 -2 71 0 93 10 89 8 -3 11 -24 10 -66 -1 -38 2 -61 9 -61 6 0 8 -9 5 -19 -2 -10 -1 -25 4 -32 5 -9 9 21 10 76 2 168 -1 278 -6 283 -3 3 -5 -29 -5 -70 0 -56 -4 -79 -15 -88 -9 -7 -18 -11 -21 -8 -2 3 -1 44 4 92 4 47 5 86 1 86 -6 0 -16 -68 -26 -175 -2 -33 -7 -62 -9 -64 -13 -14 -13 20 1 129 21 158 21 178 3 196 -13 14 -19 10 -48 -35 -30 -47 -60 -67 -60 -39 0 6 14 35 30 65 17 29 26 53 20 53 -6 0 -16 -11 -22 -25 -6 -14 -15 -25 -20 -25 -12 0 -10 8 8 35 9 14 12 25 8 25 -5 0 -21 -19 -36 -42 -15 -24 -44 -65 -63 -93 -20 -27 -39 -62 -42 -77 -3 -16 -10 -31 -15 -34 -11 -7 0 41 18 80 17 36 17 35 -3 32 -10 -2 -18 -14 -20 -32 -7 -53 -24 -104 -34 -104 -6 0 -8 8 -5 18 3 9 10 38 14 64 5 25 19 58 31 73 11 15 21 33 21 39 1 6 9 29 20 51 11 22 19 45 20 51 0 6 7 17 15 24 8 7 15 15 15 19 0 10 -60 71 -69 71 -5 0 -12 -21 -15 -47z" fill="#03a9f4"/>
<path d="M2956 4533 c-8 -68 -22 -111 -70 -216 -37 -81 -38 -97 -6 -97 10 0 20 -4 22 -8 5 -12 181 -108 212 -116 23 -6 26 -3 26 19 0 16 6 25 15 25 19 0 19 -10 -1 -38 -14 -20 -14 -23 1 -29 10 -3 21 0 26 8 31 48 99 275 99 328 -1 39 -14 49 -120 86 -24 9 -78 34 -118 55 -40 22 -75 40 -76 40 -2 0 -6 -26 -10 -57z" fill="#03a9f4"/>
<path d="M2600 4271 c0 -16 -7 -46 -16 -66 -15 -36 -14 -39 3 -57 41 -41 213 -79 213 -47 0 7 11 9 30 5 17 -3 44 -9 60 -12 17 -4 30 -10 30 -14 0 -4 30 -11 67 -15 36 -4 74 -11 82 -15 21 -11 163 -41 168 -37 2 3 -11 10 -29 17 -18 7 -55 23 -83 35 -51 23 -167 73 -290 127 -38 16 -105 47 -148 69 -43 21 -80 39 -83 39 -2 0 -4 -13 -4 -29z" fill="#03a9f4"/>
<path d="M8210 4171 c-8 -5 -39 -14 -68 -21 -28 -6 -55 -16 -58 -22 -3 -5 -17 -13 -30 -18 -26 -10 -28 -21 -29 -139 0 -67 -20 -97 -28 -44 l-4 28 -2 -26 c0 -15 -8 -40 -16 -55 l-15 -29 -1 35 c-1 32 -2 33 -9 10 -4 -14 -8 -38 -8 -55 0 -16 2 -22 5 -12 2 9 11 17 18 17 7 0 16 -8 18 -17 3 -11 5 -7 6 10 0 15 5 27 10 27 9 0 20 -29 37 -95 4 -16 8 -33 9 -37 2 -5 3 -13 4 -18 2 -19 146 14 209 48 26 13 32 22 27 37 -25 83 -33 150 -30 250 5 124 -4 149 -45 126z" fill="#03a9f4"/>
</g>
</svg>